<?xml version="1.0" encoding="utf-8"?>
<!-- Generator: Adobe Illustrator 16.0.0, SVG Export Plug-In . SVG Version: 6.00 Build 0)  -->
<!DOCTYPE svg PUBLIC "-//W3C//DTD SVG 1.1//EN" "http://www.w3.org/Graphics/SVG/1.1/DTD/svg11.dtd" [
	<!ENTITY ns_extend "http://ns.adobe.com/Extensibility/1.0/">
	<!ENTITY ns_ai "http://ns.adobe.com/AdobeIllustrator/10.0/">
	<!ENTITY ns_graphs "http://ns.adobe.com/Graphs/1.0/">
	<!ENTITY ns_vars "http://ns.adobe.com/Variables/1.0/">
	<!ENTITY ns_imrep "http://ns.adobe.com/ImageReplacement/1.0/">
	<!ENTITY ns_sfw "http://ns.adobe.com/SaveForWeb/1.0/">
	<!ENTITY ns_custom "http://ns.adobe.com/GenericCustomNamespace/1.0/">
	<!ENTITY ns_adobe_xpath "http://ns.adobe.com/XPath/1.0/">
]>
<svg version="1.1"
	 id="svg2" xmlns:x="&ns_extend;" xmlns:i="&ns_ai;" xmlns:graph="&ns_graphs;" sodipodi:docname="Laserprofilometer_EN_Wiki.svg" inkscape:version="0.43" sodipodi:version="0.32" sodipodi:docbase="C:\Documents and Settings\gwiora\My Documents\Wiki" xmlns:dc="http://purl.org/dc/elements/1.1/" xmlns:cc="http://web.resource.org/cc/" xmlns:rdf="http://www.w3.org/1999/02/22-rdf-syntax-ns#" xmlns:svg="http://www.w3.org/2000/svg" xmlns:sodipodi="http://inkscape.sourceforge.net/DTD/sodipodi-0.dtd" xmlns:inkscape="http://www.inkscape.org/namespaces/inkscape"
	 xmlns="http://www.w3.org/2000/svg" xmlns:xlink="http://www.w3.org/1999/xlink" x="0px" y="0px" width="311.811px"
	 height="340.157px" viewBox="-8.504 2.835 311.811 340.157" enable-background="new -8.504 2.835 311.811 340.157"
	 xml:space="preserve">
<metadata  id="metadata1438">
	<rdf:RDF>
		<cc:Work  rdf:about="">
			<dc:format>image/svg+xml</dc:format>
			<dc:type  rdf:resource="http://purl.org/dc/dcmitype/StillImage"></dc:type>
		</cc:Work>
	</rdf:RDF>
	<sfw  xmlns="&ns_sfw;">
		<slices></slices>
		<sliceSourceBounds  width="295.046" height="335.034" bottomLeftOrigin="true" y="219.834" x="180.983"></sliceSourceBounds>
	</sfw>
</metadata>
<g id="layer1" transform="translate(-46.46215,-41.6968)">
	
		<linearGradient id="Linse_1_" gradientUnits="userSpaceOnUse" x1="315.4543" y1="120.6389" x2="324.0197" y2="135.4745" gradientTransform="matrix(1 0 0 -1 -65.1333 346.4126)">
		<stop  offset="0" style="stop-color:#E2E5FF"/>
		<stop  offset="1" style="stop-color:#5D6BEF"/>
	</linearGradient>
	<path id="Linse" fill="url(#Linse_1_)" stroke="#000000" stroke-width="0.7087" stroke-linejoin="bevel" stroke-miterlimit="1" d="
		M199.469,196.415c19.973-1.289,40.49,3.033,59.133,13.64c0.199,0.112,0.396,0.229,0.596,0.344
		c18.801,10.854,33.01,26.602,41.983,44.72c-20.177,1.286-40.903-3.172-59.704-14.026S208.451,214.517,199.469,196.415z"/>
	
		<linearGradient id="Laser_1_" gradientUnits="userSpaceOnUse" x1="330.3235" y1="323.1702" x2="380.8092" y2="323.1701" gradientTransform="matrix(0.7089 0 0 -1.4107 -92.4215 587.0052)">
		<stop  offset="0" style="stop-color:#FED2D2"/>
		<stop  offset="1" style="stop-color:#EE6155"/>
	</linearGradient>
	
		<rect id="Laser" x="106.299" y="60.237" fill="url(#Laser_1_)" stroke="#000000" stroke-width="0.7087" stroke-linejoin="bevel" stroke-miterlimit="1" width="70.866" height="141.731"/>
	<path id="LaserMitte" fill="none" stroke="#000000" stroke-width="1.4173" stroke-dasharray="11.3386,2.8346,1.4173,2.8346" d="
		M141.732,60.237v141.731"/>
	
		<path id="Strahlengang" opacity="0.5" fill="none" stroke="#757575" stroke-width="1.4173" stroke-dasharray="4.252,1.4173" enable-background="new    " d="
		M141.732,201.968v124.017l166.536-148.819"/>
	
		<linearGradient id="Objekt_1_" gradientUnits="userSpaceOnUse" x1="196.554" y1="15.4363" x2="196.554" y2="-3.6986" gradientTransform="matrix(1 0 0 -1 -54.8218 376.145)">
		<stop  offset="0" style="stop-color:#000000"/>
		<stop  offset="1" style="stop-color:#B5B5B5"/>
	</linearGradient>
	
		<rect id="Objekt" x="88.583" y="361.417" fill="url(#Objekt_1_)" stroke="#000000" stroke-width="1.4173" width="106.299" height="17.717"/>
	
		<linearGradient id="Objekt2_1_" gradientUnits="userSpaceOnUse" x1="196.554" y1="15.4353" x2="196.554" y2="-3.6975" gradientTransform="matrix(1 0 0 -1 -54.8223 340.7114)">
		<stop  offset="0" style="stop-color:#000000"/>
		<stop  offset="1" style="stop-color:#B5B5B5"/>
	</linearGradient>
	
		<rect id="Objekt2" x="88.583" y="325.985" opacity="0.2355" fill="url(#Objekt2_1_)" stroke="#000000" stroke-width="1.4173" stroke-dasharray="4.252,1.4173" enable-background="new    " width="106.299" height="17.716"/>
	
		<path id="Strahlengang1" opacity="0.7479" fill="none" stroke="#FF810C" stroke-width="1.4173" stroke-linejoin="bevel" enable-background="new    " d="
		M141.732,201.968v159.449l159.449-194.882"/>
	
		<path id="Strahlengang2" opacity="0.7479" fill="none" stroke="#FF810C" stroke-width="0.7087" stroke-linejoin="bevel" enable-background="new    " d="
		M141.732,361.417l58.018-164.77l93.902-20.598l7.308,78.627L141.732,361.417z"/>
	<text transform="matrix(1 0 0 1 233.8577 116.929)" font-family="'TimesNewRomanPSMT'" font-size="14">Capteur CCD/PSD</text>
	<text transform="matrix(1 0 0 1 126.5706 56.4436)" font-family="'TimesNewRomanPSMT'" font-size="14">Laser</text>
	<g id="g22270">
		<text transform="matrix(1 0 0 1 51.8347 347.7639)" font-family="'Symbol'" font-size="14">DZ</text>
		<path id="path22153" fill="none" stroke="#000000" d="M81.156,361.417H74.75"/>
		<path id="path22242" d="M74.808,335.97l3.132-8.518l3.132,8.518C79.223,334.609,76.693,334.616,74.808,335.97z"/>
		<path id="path21215" d="M77.953,333.071"/>
		<line fill="none" stroke="#000000" stroke-miterlimit="10" x1="77.953" y1="333.071" x2="77.852" y2="361.344"/>
	</g>
	<g id="CCD" transform="matrix(0.866025,0.5,-0.5,0.866025,98.65147,-128.7629)">
		
			<linearGradient id="rect8837_1_" gradientUnits="userSpaceOnUse" x1="536.0957" y1="185.7473" x2="536.0957" y2="194.0074" gradientTransform="matrix(0.866 -0.5 -0.5 -0.866 -61.005 596.1551)">
			<stop  offset="0" style="stop-color:#BCFBC1"/>
			<stop  offset="1" style="stop-color:#7AC985"/>
		</linearGradient>
		
			<polygon id="rect8837" fill="url(#rect8837_1_)" stroke="#000000" stroke-width="0.7087" stroke-linejoin="bevel" stroke-miterlimit="1" points="
			248.386,149.173 372.402,149.173 372.401,166.89 248.385,166.889 		"/>
		<path id="path9723" fill="none" stroke="#000000" d="M265.14,148.819l-0.001,17.717"/>
		<g id="use9764">
			<path id="path9723_1_" fill="none" stroke="#000000" d="M265.14,148.819l-0.001,17.717"/>
		</g>
		<g id="use9766" transform="translate(17.81653,0)">
			<path id="path9723_2_" fill="none" stroke="#000000" d="M282.955,148.819l0,17.716"/>
		</g>
		<g id="use9768" transform="translate(35.63307,0)">
			<path id="path9723_3_" fill="none" stroke="#000000" d="M300.772,148.819l0,17.716"/>
		</g>
		<g id="use9770" transform="translate(53.44961,0)">
			<path id="path9723_4_" fill="none" stroke="#000000" d="M318.589,148.819l0,17.716"/>
		</g>
		<g id="use9772" transform="translate(71.26614,0)">
			<path id="path9723_5_" fill="none" stroke="#000000" d="M336.405,148.819l0,17.716"/>
		</g>
		<g id="use9774" transform="translate(89.08268,0)">
			<path id="path9723_6_" fill="none" stroke="#000000" d="M354.221,148.819l0.001,17.716"/>
		</g>
	</g>
	<g id="g23270" transform="matrix(0.866025,0.5,-0.5,0.866025,131.5803,-72.94023)">
		<path id="path22153_1_" fill="none" stroke="#000000" d="M261.302,116.589l0-6.407"/>
		<path id="path22242_1_" d="M272.577,110.241l8.517,3.132l-8.517,3.132C273.937,114.656,273.929,112.126,272.577,110.241z"/>
		<path id="path22383" d="M275.475,113.386"/>
		<text transform="matrix(1 0 0 1 263.7334 107.8423)" font-family="'Symbol'" font-size="14">D</text>
		<text transform="matrix(1 0 0 1 272.1342 107.8421)" font-family="'TimesNewRomanPSMT'" font-size="14">z</text>
		<line fill="none" stroke="#000000" stroke-miterlimit="10" x1="275.475" y1="113.386" x2="261.357" y2="113.474"/>
	</g>
</g>
<g id="layer2" transform="translate(-46.46215,-41.6968)">
	<text transform="matrix(1 0 0 1 289.7825 272.3919)" font-family="'TimesNewRomanPSMT'" font-size="14">Lentille</text>
	<text transform="matrix(1 0 0 1 200.9602 355.1077)" font-family="'TimesNewRomanPSMT'" font-size="14">Objet</text>
</g>
<g id="layer3">
	<g>
		<g>
			
				<line fill="none" stroke="#FF0000" stroke-width="2" stroke-miterlimit="10" x1="148.42" y1="337.437" x2="148.42" y2="336.437"/>
			
				<line fill="none" stroke="#FF0000" stroke-width="2" stroke-miterlimit="10" stroke-dasharray="2.1709,2.1709,2.1709,2.1709" x1="148.419" y1="334.266" x2="148.415" y2="326.668"/>
			
				<line fill="none" stroke="#FF0000" stroke-width="2" stroke-miterlimit="10" stroke-dasharray="2.1709,2.1709,2.1709,2.1709,2.1709,2.1709" x1="148.414" y1="325.583" x2="148.391" y2="274.566"/>
			<line fill="none" stroke="#FF0000" stroke-width="2" stroke-miterlimit="10" x1="148.39" y1="273.48" x2="148.39" y2="272.48"/>
		</g>
	</g>
	<text transform="matrix(1 0 0 1 206.3916 281.9803)"><tspan x="0" y="0" fill="#FF0000" font-family="'MyriadPro-Regular'" font-size="8">Contrainte de géométrie</tspan><tspan x="0" y="9.6" fill="#FF0000" font-family="'MyriadPro-Regular'" font-size="8">pour la mesure</tspan></text>
	<line fill="none" stroke="#FF0000" stroke-width="0.75" stroke-miterlimit="10" x1="148.39" y1="290.48" x2="204.89" y2="279.48"/>
</g>
</svg>
