<svg xmlns="http://www.w3.org/2000/svg" width="662" height="302" style="
        width:662px;
        height:302px;
        background: transparent;
        fill: none;
">
        <svg xmlns="http://www.w3.org/2000/svg"/>
        <svg xmlns="http://www.w3.org/2000/svg" class="role-diagram-draw-area"><g class="shapes-region" style="stroke: black; fill: none;"><g class="composite-shape" data-amt="diagram/shapes/plot" style="transform: matrix(1, 0, 0, 1, 30, 21);"><defs><clipPath id="dp9236989428912281"><rect x="1" y="1" width="288.5" height="241.92187500000003"/></clipPath></defs><g><g clip-path="url(#dp9236989428912281)"><g><line x1="37.79999999999999" y1="0" x2="37.79999999999999" y2="243.92187500000003" fill="none" stroke="lightgray" stroke-width="0.5"/><line x1="92.39999999999999" y1="0" x2="92.39999999999999" y2="243.92187500000003" fill="none" stroke="lightgray" stroke-width="0.5"/><line x1="147" y1="0" x2="147" y2="243.92187500000003" fill="none" stroke="lightgray" stroke-width="0.5"/><line x1="201.6" y1="0" x2="201.6" y2="243.92187500000003" fill="none" stroke="lightgray" stroke-width="0.5"/><line x1="256.2" y1="0" x2="256.2" y2="243.92187500000003" fill="none" stroke="lightgray" stroke-width="0.5"/></g><g><line x1="0" y1="230.12187500000005" x2="290.5" y2="230.12187500000005" fill="none" stroke="lightgray" stroke-width="0.5"/><line x1="0" y1="182.02187500000002" x2="290.5" y2="182.02187500000002" fill="none" stroke="lightgray" stroke-width="0.5"/><line x1="0" y1="133.92187500000003" x2="290.5" y2="133.92187500000003" fill="none" stroke="lightgray" stroke-width="0.5"/><line x1="0" y1="85.821875" x2="290.5" y2="85.821875" fill="none" stroke="lightgray" stroke-width="0.5"/><line x1="0" y1="37.72187500000004" x2="290.5" y2="37.72187500000004" fill="none" stroke="lightgray" stroke-width="0.5"/><line x1="0" y1="230.12187500000005" x2="290.5" y2="230.12187500000005" fill="none" stroke="lightgray" stroke-width="0.5"/><line x1="0" y1="230.12187500000005" x2="290.5" y2="230.12187500000005" fill="none" stroke="lightgray" stroke-width="0.5"/><line x1="0" y1="133.92187500000003" x2="290.5" y2="133.92187500000003" fill="none" stroke="lightgray" stroke-width="0.5"/><line x1="0" y1="37.72187500000004" x2="290.5" y2="37.72187500000004" fill="none" stroke="lightgray" stroke-width="0.5"/></g><g style="font-family: Arial;"><line x1="0" y1="133.92187500000003" x2="290" y2="133.92187500000003" fill="none" stroke="#000" stroke-width="0.5"/><line x1="37.79999999999999" y1="129.92187500000003" x2="37.79999999999999" y2="137.92187500000003" fill="none" stroke="#000" stroke-width="0.5"/><line x1="92.39999999999999" y1="129.92187500000003" x2="92.39999999999999" y2="137.92187500000003" fill="none" stroke="#000" stroke-width="0.5"/><line x1="201.6" y1="129.92187500000003" x2="201.6" y2="137.92187500000003" fill="none" stroke="#000" stroke-width="0.5"/><line x1="256.2" y1="129.92187500000003" x2="256.2" y2="137.92187500000003" fill="none" stroke="#000" stroke-width="0.5"/><path d="M285,129.92187500000003 L289,133.92187500000003 L285,137.92187500000003" stroke="#000" stroke-width="0.5"/></g><g style="font-family: Arial;"><line x1="147" y1="0.5" x2="147" y2="243.92187500000003" fill="none" stroke="#000" stroke-width="0.5"/><line x1="145" y1="230.12187500000005" x2="149" y2="230.12187500000005" fill="none" stroke="#000" stroke-width="0.5"/><line x1="145" y1="182.02187500000002" x2="149" y2="182.02187500000002" fill="none" stroke="#000" stroke-width="0.5"/><line x1="145" y1="133.92187500000003" x2="149" y2="133.92187500000003" fill="none" stroke="#000" stroke-width="0.5"/><line x1="145" y1="85.821875" x2="149" y2="85.821875" fill="none" stroke="#000" stroke-width="0.5"/><line x1="145" y1="37.72187500000004" x2="149" y2="37.72187500000004" fill="none" stroke="#000" stroke-width="0.5"/><line x1="145" y1="230.12187500000005" x2="149" y2="230.12187500000005" fill="none" stroke="#000" stroke-width="0.5"/><line x1="143" y1="230.12187500000005" x2="151" y2="230.12187500000005" fill="none" stroke="#000" stroke-width="0.5"/><line x1="143" y1="37.72187500000004" x2="151" y2="37.72187500000004" fill="none" stroke="#000" stroke-width="0.5"/><path d="M143,5.5 L147,1.5 L151,5.5" stroke="#000" stroke-width="0.5"/></g><g><path d=" M0.00,127.82 L0.50,127.77 L1.00,127.71 L1.50,127.66 L2.00,127.61 L2.50,127.55 L3.01,127.50 L3.51,127.44 L4.01,127.39 L4.51,127.33 L5.01,127.27 L5.51,127.22 L6.01,127.16 L6.51,127.10 L7.01,127.04 L7.51,126.98 L8.01,126.93 L8.51,126.87 L9.02,126.81 L9.52,126.74 L10.02,126.68 L10.52,126.62 L11.02,126.56 L11.52,126.50 L12.02,126.43 L12.52,126.37 L13.02,126.31 L13.52,126.24 L14.02,126.18 L14.53,126.11 L15.03,126.05 L15.53,125.98 L16.03,125.91 L16.53,125.84 L17.03,125.78 L17.53,125.71 L18.03,125.64 L18.53,125.57 L19.03,125.50 L19.53,125.43 L20.03,125.36 L20.54,125.28 L21.04,125.21 L21.54,125.14 L22.04,125.07 L22.54,124.99 L23.04,124.92 L23.54,124.84 L24.04,124.77 L24.54,124.69 L25.04,124.61 L25.54,124.54 L26.04,124.46 L26.55,124.38 L27.05,124.30 L27.55,124.22 L28.05,124.14 L28.55,124.06 L29.05,123.98 L29.55,123.89 L30.05,123.81 L30.55,123.73 L31.05,123.65 L31.55,123.56 L32.06,123.48 L32.56,123.39 L33.06,123.30 L33.56,123.22 L34.06,123.13 L34.56,123.04 L35.06,122.95 L35.56,122.86 L36.06,122.77 L36.56,122.68 L37.06,122.59 L37.56,122.50 L38.07,122.41 L38.57,122.31 L39.07,122.22 L39.57,122.12 L40.07,122.03 L40.57,121.93 L41.07,121.84 L41.57,121.74 L42.07,121.64 L42.57,121.54 L43.07,121.44 L43.58,121.34 L44.08,121.24 L44.58,121.14 L45.08,121.04 L45.58,120.94 L46.08,120.83 L46.58,120.73 L47.08,120.62 L47.58,120.52 L48.08,120.41 L48.58,120.31 L49.08,120.20 L49.59,120.09 L50.09,119.98 L50.59,119.87 L51.09,119.76 L51.59,119.65 L52.09,119.54 L52.59,119.42 L53.09,119.31 L53.59,119.20 L54.09,119.08 L54.59,118.97 L55.09,118.85 L55.60,118.73 L56.10,118.62 L56.60,118.50 L57.10,118.38 L57.60,118.26 L58.10,118.14 L58.60,118.02 L59.10,117.89 L59.60,117.77 L60.10,117.65 L60.60,117.52 L61.11,117.40 L61.61,117.27 L62.11,117.15 L62.61,117.02 L63.11,116.89 L63.61,116.76 L64.11,116.63 L64.61,116.50 L65.11,116.37 L65.61,116.24 L66.11,116.10 L66.61,115.97 L67.12,115.84 L67.62,115.70 L68.12,115.57 L68.62,115.43 L69.12,115.29 L69.62,115.15 L70.12,115.01 L70.62,114.87 L71.12,114.73 L71.62,114.59 L72.12,114.45 L72.63,114.31 L73.13,114.16 L73.63,114.02 L74.13,113.87 L74.63,113.73 L75.13,113.58 L75.63,113.43 L76.13,113.29 L76.63,113.14 L77.13,112.99 L77.63,112.84 L78.13,112.69 L78.64,112.53 L79.14,112.38 L79.64,112.23 L80.14,112.07 L80.64,111.92 L81.14,111.76 L81.64,111.60 L82.14,111.45 L82.64,111.29 L83.14,111.13 L83.64,110.97 L84.14,110.81 L84.65,110.65 L85.15,110.48 L85.65,110.32 L86.15,110.16 L86.65,109.99 L87.15,109.83 L87.65,109.66 L88.15,109.49 L88.65,109.33 L89.15,109.16 L89.65,108.99 L90.16,108.82 L90.66,108.65 L91.16,108.48 L91.66,108.31 L92.16,108.13 L92.66,107.96 L93.16,107.79 L93.66,107.61 L94.16,107.43 L94.66,107.26 L95.16,107.08 L95.66,106.90 L96.17,106.72 L96.67,106.55 L97.17,106.37 L97.67,106.18 L98.17,106.00 L98.67,105.82 L99.17,105.64 L99.67,105.45 L100.17,105.27 L100.67,105.09 L101.17,104.90 L101.68,104.71 L102.18,104.53 L102.68,104.34 L103.18,104.15 L103.68,103.96 L104.18,103.77 L104.68,103.58 L105.18,103.39 L105.68,103.20 L106.18,103.01 L106.68,102.82 L107.18,102.62 L107.69,102.43 L108.19,102.23 L108.69,102.04 L109.19,101.84 L109.69,101.65 L110.19,101.45 L110.69,101.25 L111.19,101.05 L111.69,100.85 L112.19,100.65 L112.69,100.45 L113.19,100.25 L113.70,100.05 L114.20,99.85 L114.70,99.65 L115.20,99.45 L115.70,99.24 L116.20,99.04 L116.70,98.84 L117.20,98.63 L117.70,98.43 L118.20,98.22 L118.70,98.01 L119.21,97.81 L119.71,97.60 L120.21,97.39 L120.71,97.18 L121.21,96.98 L121.71,96.77 L122.21,96.56 L122.71,96.35 L123.21,96.14 L123.71,95.93 L124.21,95.72 L124.71,95.50 L125.22,95.29 L125.72,95.08 L126.22,94.87 L126.72,94.65 L127.22,94.44 L127.72,94.23 L128.22,94.01 L128.72,93.80 L129.22,93.58 L129.72,93.37 L130.22,93.15 L130.73,92.94 L131.23,92.72 L131.73,92.51 L132.23,92.29 L132.73,92.07 L133.23,91.86 L133.73,91.64 L134.23,91.42 L134.73,91.20 L135.23,90.99 L135.73,90.77 L136.23,90.55 L136.74,90.33 L137.24,90.11 L137.74,89.89 L138.24,89.67 L138.74,89.45 L139.24,89.23 L139.74,89.01 L140.24,88.80 L140.74,88.58 L141.24,88.36 L141.74,88.14 L142.24,87.92 L142.75,87.69 L143.25,87.47 L143.75,87.25 L144.25,87.03 L144.75,86.81 L145.25,86.59 L145.75,86.37 L146.25,86.15 L146.75,85.93 L147.25,85.71 L147.75,85.49 L148.26,85.27 L148.76,85.05 L149.26,84.83 L149.76,84.61 L150.26,84.39 L150.76,84.17 L151.26,83.95 L151.76,83.73 L152.26,83.51 L152.76,83.29 L153.26,83.07 L153.76,82.85 L154.27,82.63 L154.77,82.41 L155.27,82.19 L155.77,81.97 L156.27,81.75 L156.77,81.53 L157.27,81.31 L157.77,81.09 L158.27,80.87 L158.77,80.66 L159.27,80.44 L159.78,80.22 L160.28,80.00 L160.78,79.79 L161.28,79.57 L161.78,79.35 L162.28,79.14 L162.78,78.92 L163.28,78.70 L163.78,78.49 L164.28,78.27 L164.78,78.06 L165.28,77.84 L165.79,77.63 L166.29,77.41 L166.79,77.20 L167.29,76.99 L167.79,76.77 L168.29,76.56 L168.79,76.35 L169.29,76.14 L169.79,75.93 L170.29,75.71 L170.79,75.50 L171.29,75.29 L171.80,75.08 L172.30,74.87 L172.80,74.67 L173.30,74.46 L173.80,74.25 L174.30,74.04 L174.80,73.83 L175.30,73.63 L175.80,73.42 L176.30,73.22 L176.80,73.01 L177.31,72.81 L177.81,72.60 L178.31,72.40 L178.81,72.19 L179.31,71.99 L179.81,71.79 L180.31,71.59 L180.81,71.39 L181.31,71.19 L181.81,70.99 L182.31,70.79 L182.81,70.59 L183.32,70.39 L183.82,70.19 L184.32,70.00 L184.82,69.80 L185.32,69.60 L185.82,69.41 L186.32,69.21 L186.82,69.02 L187.32,68.83 L187.82,68.63 L188.32,68.44 L188.83,68.25 L189.33,68.06 L189.83,67.87 L190.33,67.68 L190.83,67.49 L191.33,67.30 L191.83,67.11 L192.33,66.93 L192.83,66.74 L193.33,66.56 L193.83,66.37 L194.33,66.19 L194.84,66.00 L195.34,65.82 L195.84,65.64 L196.34,65.46 L196.84,65.28 L197.34,65.10 L197.84,64.92 L198.34,64.74 L198.84,64.56 L199.34,64.38 L199.84,64.21 L200.34,64.03 L200.85,63.86 L201.35,63.68 L201.85,63.51 L202.35,63.34 L202.85,63.16 L203.35,62.99 L203.85,62.82 L204.35,62.65 L204.85,62.48 L205.35,62.31 L205.85,62.15 L206.36,61.98 L206.86,61.81 L207.36,61.65 L207.86,61.48 L208.36,61.32 L208.86,61.16 L209.36,61.00 L209.86,60.83 L210.36,60.67 L210.86,60.51 L211.36,60.35 L211.86,60.20 L212.37,60.04 L212.87,59.88 L213.37,59.73 L213.87,59.57 L214.37,59.42 L214.87,59.26 L215.37,59.11 L215.87,58.96 L216.37,58.81 L216.87,58.65 L217.37,58.50 L217.88,58.36 L218.38,58.21 L218.88,58.06 L219.38,57.91 L219.88,57.77 L220.38,57.62 L220.88,57.48 L221.38,57.33 L221.88,57.19 L222.38,57.05 L222.88,56.91 L223.38,56.77 L223.89,56.63 L224.39,56.49 L224.89,56.35 L225.39,56.21 L225.89,56.08 L226.39,55.94 L226.89,55.81 L227.39,55.67 L227.89,55.54 L228.39,55.40 L228.89,55.27 L229.39,55.14 L229.90,55.01 L230.40,54.88 L230.90,54.75 L231.40,54.62 L231.90,54.50 L232.40,54.37 L232.90,54.24 L233.40,54.12 L233.90,53.99 L234.40,53.87 L234.90,53.75 L235.41,53.63 L235.91,53.50 L236.41,53.38 L236.91,53.26 L237.41,53.14 L237.91,53.03 L238.41,52.91 L238.91,52.79 L239.41,52.68 L239.91,52.56 L240.41,52.45 L240.91,52.33 L241.42,52.22 L241.92,52.11 L242.42,51.99 L242.92,51.88 L243.42,51.77 L243.92,51.66 L244.42,51.55 L244.92,51.45 L245.42,51.34 L245.92,51.23 L246.42,51.12 L246.93,51.02 L247.43,50.91 L247.93,50.81 L248.43,50.71 L248.93,50.60 L249.43,50.50 L249.93,50.40 L250.43,50.30 L250.93,50.20 L251.43,50.10 L251.93,50.00 L252.43,49.90 L252.94,49.81 L253.44,49.71 L253.94,49.61 L254.44,49.52 L254.94,49.42 L255.44,49.33 L255.94,49.24 L256.44,49.14 L256.94,49.05 L257.44,48.96 L257.94,48.87 L258.44,48.78 L258.95,48.69 L259.45,48.60 L259.95,48.51 L260.45,48.43 L260.95,48.34 L261.45,48.25 L261.95,48.17 L262.45,48.08 L262.95,48.00 L263.45,47.91 L263.95,47.83 L264.46,47.75 L264.96,47.67 L265.46,47.58 L265.96,47.50 L266.46,47.42 L266.96,47.34 L267.46,47.26 L267.96,47.19 L268.46,47.11 L268.96,47.03 L269.46,46.95 L269.96,46.88 L270.47,46.80 L270.97,46.73 L271.47,46.65 L271.97,46.58 L272.47,46.50 L272.97,46.43 L273.47,46.36 L273.97,46.29 L274.47,46.22 L274.97,46.14 L275.47,46.07 L275.98,46.00 L276.48,45.94 L276.98,45.87 L277.48,45.80 L277.98,45.73 L278.48,45.66 L278.98,45.60 L279.48,45.53 L279.98,45.47 L280.48,45.40 L280.98,45.34 L281.48,45.27 L281.99,45.21 L282.49,45.15 L282.99,45.08 L283.49,45.02 L283.99,44.96 L284.49,44.90 L284.99,44.84 L285.49,44.78 L285.99,44.72 L286.49,44.66 L286.99,44.60 L287.49,44.54 L288.00,44.48 L288.50,44.43 L289.00,44.37 L289.50,44.31 L290.00,44.26 L290.50,44.20" style="stroke-width: 1; stroke: rgb(74, 144, 226);"/><path d=" M0.00,229.24 L0.50,229.23 L1.00,229.21 L1.50,229.19 L2.00,229.18 L2.50,229.16 L3.01,229.14 L3.51,229.12 L4.01,229.11 L4.51,229.09 L5.01,229.07 L5.51,229.05 L6.01,229.03 L6.51,229.01 L7.01,228.99 L7.51,228.97 L8.01,228.95 L8.51,228.92 L9.02,228.90 L9.52,228.88 L10.02,228.86 L10.52,228.83 L11.02,228.81 L11.52,228.79 L12.02,228.76 L12.52,228.74 L13.02,228.71 L13.52,228.68 L14.02,228.66 L14.53,228.63 L15.03,228.60 L15.53,228.58 L16.03,228.55 L16.53,228.52 L17.03,228.49 L17.53,228.46 L18.03,228.43 L18.53,228.40 L19.03,228.37 L19.53,228.33 L20.03,228.30 L20.54,228.27 L21.04,228.23 L21.54,228.20 L22.04,228.16 L22.54,228.13 L23.04,228.09 L23.54,228.05 L24.04,228.02 L24.54,227.98 L25.04,227.94 L25.54,227.90 L26.04,227.86 L26.55,227.82 L27.05,227.77 L27.55,227.73 L28.05,227.69 L28.55,227.64 L29.05,227.60 L29.55,227.55 L30.05,227.50 L30.55,227.46 L31.05,227.41 L31.55,227.36 L32.06,227.31 L32.56,227.26 L33.06,227.20 L33.56,227.15 L34.06,227.10 L34.56,227.04 L35.06,226.99 L35.56,226.93 L36.06,226.87 L36.56,226.81 L37.06,226.75 L37.56,226.69 L38.07,226.63 L38.57,226.56 L39.07,226.50 L39.57,226.43 L40.07,226.37 L40.57,226.30 L41.07,226.23 L41.57,226.16 L42.07,226.09 L42.57,226.01 L43.07,225.94 L43.58,225.86 L44.08,225.79 L44.58,225.71 L45.08,225.63 L45.58,225.55 L46.08,225.46 L46.58,225.38 L47.08,225.30 L47.58,225.21 L48.08,225.12 L48.58,225.03 L49.08,224.94 L49.59,224.84 L50.09,224.75 L50.59,224.65 L51.09,224.55 L51.59,224.45 L52.09,224.35 L52.59,224.25 L53.09,224.14 L53.59,224.04 L54.09,223.93 L54.59,223.82 L55.09,223.70 L55.60,223.59 L56.10,223.47 L56.60,223.35 L57.10,223.23 L57.60,223.11 L58.10,222.98 L58.60,222.86 L59.10,222.73 L59.60,222.60 L60.10,222.46 L60.60,222.33 L61.11,222.19 L61.61,222.05 L62.11,221.90 L62.61,221.76 L63.11,221.61 L63.61,221.46 L64.11,221.31 L64.61,221.15 L65.11,220.99 L65.61,220.83 L66.11,220.67 L66.61,220.50 L67.12,220.33 L67.62,220.16 L68.12,219.99 L68.62,219.81 L69.12,219.63 L69.62,219.45 L70.12,219.26 L70.62,219.07 L71.12,218.88 L71.62,218.68 L72.12,218.48 L72.63,218.28 L73.13,218.07 L73.63,217.87 L74.13,217.65 L74.63,217.44 L75.13,217.22 L75.63,217.00 L76.13,216.77 L76.63,216.54 L77.13,216.31 L77.63,216.07 L78.13,215.83 L78.64,215.58 L79.14,215.33 L79.64,215.08 L80.14,214.83 L80.64,214.57 L81.14,214.30 L81.64,214.03 L82.14,213.76 L82.64,213.48 L83.14,213.20 L83.64,212.92 L84.14,212.63 L84.65,212.33 L85.15,212.04 L85.65,211.73 L86.15,211.43 L86.65,211.11 L87.15,210.80 L87.65,210.48 L88.15,210.15 L88.65,209.82 L89.15,209.48 L89.65,209.14 L90.16,208.80 L90.66,208.45 L91.16,208.09 L91.66,207.73 L92.16,207.37 L92.66,206.99 L93.16,206.62 L93.66,206.24 L94.16,205.85 L94.66,205.46 L95.16,205.06 L95.66,204.66 L96.17,204.25 L96.67,203.84 L97.17,203.42 L97.67,202.99 L98.17,202.56 L98.67,202.13 L99.17,201.69 L99.67,201.24 L100.17,200.79 L100.67,200.33 L101.17,199.86 L101.68,199.39 L102.18,198.91 L102.68,198.43 L103.18,197.94 L103.68,197.45 L104.18,196.95 L104.68,196.44 L105.18,195.93 L105.68,195.41 L106.18,194.88 L106.68,194.35 L107.18,193.81 L107.69,193.27 L108.19,192.72 L108.69,192.17 L109.19,191.60 L109.69,191.04 L110.19,190.46 L110.69,189.88 L111.19,189.29 L111.69,188.70 L112.19,188.10 L112.69,187.49 L113.19,186.88 L113.70,186.26 L114.20,185.64 L114.70,185.01 L115.20,184.37 L115.70,183.73 L116.20,183.08 L116.70,182.43 L117.20,181.77 L117.70,181.10 L118.20,180.42 L118.70,179.75 L119.21,179.06 L119.71,178.37 L120.21,177.67 L120.71,176.97 L121.21,176.26 L121.71,175.55 L122.21,174.83 L122.71,174.10 L123.21,173.37 L123.71,172.63 L124.21,171.89 L124.71,171.14 L125.22,170.39 L125.72,169.63 L126.22,168.87 L126.72,168.10 L127.22,167.33 L127.72,166.55 L128.22,165.76 L128.72,164.98 L129.22,164.18 L129.72,163.38 L130.22,162.58 L130.73,161.78 L131.23,160.97 L131.73,160.15 L132.23,159.33 L132.73,158.51 L133.23,157.68 L133.73,156.85 L134.23,156.02 L134.73,155.18 L135.23,154.34 L135.73,153.50 L136.23,152.65 L136.74,151.80 L137.24,150.94 L137.74,150.09 L138.24,149.23 L138.74,148.37 L139.24,147.50 L139.74,146.64 L140.24,145.77 L140.74,144.90 L141.24,144.03 L141.74,143.15 L142.24,142.28 L142.75,141.40 L143.25,140.52 L143.75,139.65 L144.25,138.77 L144.75,137.89 L145.25,137.00 L145.75,136.12 L146.25,135.24 L146.75,134.36 L147.25,133.48 L147.75,132.59 L148.26,131.71 L148.76,130.83 L149.26,129.95 L149.76,129.07 L150.26,128.19 L150.76,127.31 L151.26,126.43 L151.76,125.55 L152.26,124.68 L152.76,123.81 L153.26,122.93 L153.76,122.06 L154.27,121.20 L154.77,120.33 L155.27,119.47 L155.77,118.60 L156.27,117.75 L156.77,116.89 L157.27,116.04 L157.77,115.19 L158.27,114.34 L158.77,113.49 L159.27,112.65 L159.78,111.82 L160.28,110.98 L160.78,110.15 L161.28,109.32 L161.78,108.50 L162.28,107.68 L162.78,106.87 L163.28,106.06 L163.78,105.25 L164.28,104.45 L164.78,103.65 L165.28,102.86 L165.79,102.07 L166.29,101.29 L166.79,100.51 L167.29,99.74 L167.79,98.97 L168.29,98.20 L168.79,97.45 L169.29,96.69 L169.79,95.94 L170.29,95.20 L170.79,94.47 L171.29,93.73 L171.80,93.01 L172.30,92.29 L172.80,91.57 L173.30,90.87 L173.80,90.16 L174.30,89.47 L174.80,88.78 L175.30,88.09 L175.80,87.41 L176.30,86.74 L176.80,86.07 L177.31,85.41 L177.81,84.75 L178.31,84.11 L178.81,83.46 L179.31,82.83 L179.81,82.20 L180.31,81.57 L180.81,80.95 L181.31,80.34 L181.81,79.74 L182.31,79.14 L182.81,78.54 L183.32,77.96 L183.82,77.38 L184.32,76.80 L184.82,76.23 L185.32,75.67 L185.82,75.12 L186.32,74.57 L186.82,74.02 L187.32,73.49 L187.82,72.95 L188.32,72.43 L188.83,71.91 L189.33,71.40 L189.83,70.89 L190.33,70.39 L190.83,69.90 L191.33,69.41 L191.83,68.92 L192.33,68.45 L192.83,67.98 L193.33,67.51 L193.83,67.05 L194.33,66.60 L194.84,66.15 L195.34,65.71 L195.84,65.27 L196.34,64.84 L196.84,64.42 L197.34,64.00 L197.84,63.59 L198.34,63.18 L198.84,62.78 L199.34,62.38 L199.84,61.99 L200.34,61.60 L200.85,61.22 L201.35,60.84 L201.85,60.47 L202.35,60.11 L202.85,59.75 L203.35,59.39 L203.85,59.04 L204.35,58.70 L204.85,58.36 L205.35,58.02 L205.85,57.69 L206.36,57.36 L206.86,57.04 L207.36,56.73 L207.86,56.41 L208.36,56.11 L208.86,55.80 L209.36,55.51 L209.86,55.21 L210.36,54.92 L210.86,54.64 L211.36,54.36 L211.86,54.08 L212.37,53.81 L212.87,53.54 L213.37,53.27 L213.87,53.01 L214.37,52.76 L214.87,52.51 L215.37,52.26 L215.87,52.01 L216.37,51.77 L216.87,51.53 L217.37,51.30 L217.88,51.07 L218.38,50.85 L218.88,50.62 L219.38,50.40 L219.88,50.19 L220.38,49.98 L220.88,49.77 L221.38,49.56 L221.88,49.36 L222.38,49.16 L222.88,48.96 L223.38,48.77 L223.89,48.58 L224.39,48.40 L224.89,48.21 L225.39,48.03 L225.89,47.85 L226.39,47.68 L226.89,47.51 L227.39,47.34 L227.89,47.17 L228.39,47.01 L228.89,46.85 L229.39,46.69 L229.90,46.53 L230.40,46.38 L230.90,46.23 L231.40,46.08 L231.90,45.94 L232.40,45.79 L232.90,45.65 L233.40,45.52 L233.90,45.38 L234.40,45.25 L234.90,45.11 L235.41,44.99 L235.91,44.86 L236.41,44.73 L236.91,44.61 L237.41,44.49 L237.91,44.37 L238.41,44.25 L238.91,44.14 L239.41,44.03 L239.91,43.92 L240.41,43.81 L240.91,43.70 L241.42,43.59 L241.92,43.49 L242.42,43.39 L242.92,43.29 L243.42,43.19 L243.92,43.09 L244.42,43.00 L244.92,42.90 L245.42,42.81 L245.92,42.72 L246.42,42.63 L246.93,42.55 L247.43,42.46 L247.93,42.38 L248.43,42.30 L248.93,42.21 L249.43,42.13 L249.93,42.06 L250.43,41.98 L250.93,41.90 L251.43,41.83 L251.93,41.76 L252.43,41.68 L252.94,41.61 L253.44,41.54 L253.94,41.48 L254.44,41.41 L254.94,41.34 L255.44,41.28 L255.94,41.21 L256.44,41.15 L256.94,41.09 L257.44,41.03 L257.94,40.97 L258.44,40.91 L258.95,40.86 L259.45,40.80 L259.95,40.75 L260.45,40.69 L260.95,40.64 L261.45,40.59 L261.95,40.53 L262.45,40.48 L262.95,40.43 L263.45,40.39 L263.95,40.34 L264.46,40.29 L264.96,40.25 L265.46,40.20 L265.96,40.16 L266.46,40.11 L266.96,40.07 L267.46,40.03 L267.96,39.99 L268.46,39.94 L268.96,39.90 L269.46,39.87 L269.96,39.83 L270.47,39.79 L270.97,39.75 L271.47,39.72 L271.97,39.68 L272.47,39.64 L272.97,39.61 L273.47,39.58 L273.97,39.54 L274.47,39.51 L274.97,39.48 L275.47,39.45 L275.98,39.41 L276.48,39.38 L276.98,39.35 L277.48,39.32 L277.98,39.30 L278.48,39.27 L278.98,39.24 L279.48,39.21 L279.98,39.19 L280.48,39.16 L280.98,39.13 L281.48,39.11 L281.99,39.08 L282.49,39.06 L282.99,39.03 L283.49,39.01 L283.99,38.99 L284.49,38.96 L284.99,38.94 L285.49,38.92 L285.99,38.90 L286.49,38.88 L286.99,38.86 L287.49,38.84 L288.00,38.82 L288.50,38.80 L289.00,38.78 L289.50,38.76 L290.00,38.74 L290.50,38.72" style="stroke-width: 1; stroke: rgb(208, 2, 27);"/><path d=" M0.00,198.67 L0.50,198.45 L1.00,198.23 L1.50,198.01 L2.00,197.79 L2.50,197.57 L3.01,197.35 L3.51,197.13 L4.01,196.91 L4.51,196.69 L5.01,196.47 L5.51,196.25 L6.01,196.02 L6.51,195.80 L7.01,195.58 L7.51,195.36 L8.01,195.14 L8.51,194.92 L9.02,194.70 L9.52,194.48 L10.02,194.26 L10.52,194.04 L11.02,193.82 L11.52,193.60 L12.02,193.38 L12.52,193.16 L13.02,192.94 L13.52,192.72 L14.02,192.49 L14.53,192.27 L15.03,192.05 L15.53,191.83 L16.03,191.61 L16.53,191.39 L17.03,191.17 L17.53,190.95 L18.03,190.73 L18.53,190.51 L19.03,190.29 L19.53,190.07 L20.03,189.85 L20.54,189.63 L21.04,189.41 L21.54,189.19 L22.04,188.96 L22.54,188.74 L23.04,188.52 L23.54,188.30 L24.04,188.08 L24.54,187.86 L25.04,187.64 L25.54,187.42 L26.04,187.20 L26.55,186.98 L27.05,186.76 L27.55,186.54 L28.05,186.32 L28.55,186.10 L29.05,185.88 L29.55,185.66 L30.05,185.43 L30.55,185.21 L31.05,184.99 L31.55,184.77 L32.06,184.55 L32.56,184.33 L33.06,184.11 L33.56,183.89 L34.06,183.67 L34.56,183.45 L35.06,183.23 L35.56,183.01 L36.06,182.79 L36.56,182.57 L37.06,182.35 L37.56,182.13 L38.07,181.90 L38.57,181.68 L39.07,181.46 L39.57,181.24 L40.07,181.02 L40.57,180.80 L41.07,180.58 L41.57,180.36 L42.07,180.14 L42.57,179.92 L43.07,179.70 L43.58,179.48 L44.08,179.26 L44.58,179.04 L45.08,178.82 L45.58,178.60 L46.08,178.38 L46.58,178.15 L47.08,177.93 L47.58,177.71 L48.08,177.49 L48.58,177.27 L49.08,177.05 L49.59,176.83 L50.09,176.61 L50.59,176.39 L51.09,176.17 L51.59,175.95 L52.09,175.73 L52.59,175.51 L53.09,175.29 L53.59,175.07 L54.09,174.85 L54.59,174.62 L55.09,174.40 L55.60,174.18 L56.10,173.96 L56.60,173.74 L57.10,173.52 L57.60,173.30 L58.10,173.08 L58.60,172.86 L59.10,172.64 L59.60,172.42 L60.10,172.20 L60.60,171.98 L61.11,171.76 L61.61,171.54 L62.11,171.32 L62.61,171.09 L63.11,170.87 L63.61,170.65 L64.11,170.43 L64.61,170.21 L65.11,169.99 L65.61,169.77 L66.11,169.55 L66.61,169.33 L67.12,169.11 L67.62,168.89 L68.12,168.67 L68.62,168.45 L69.12,168.23 L69.62,168.01 L70.12,167.79 L70.62,167.56 L71.12,167.34 L71.62,167.12 L72.12,166.90 L72.63,166.68 L73.13,166.46 L73.63,166.24 L74.13,166.02 L74.63,165.80 L75.13,165.58 L75.63,165.36 L76.13,165.14 L76.63,164.92 L77.13,164.70 L77.63,164.48 L78.13,164.26 L78.64,164.03 L79.14,163.81 L79.64,163.59 L80.14,163.37 L80.64,163.15 L81.14,162.93 L81.64,162.71 L82.14,162.49 L82.64,162.27 L83.14,162.05 L83.64,161.83 L84.14,161.61 L84.65,161.39 L85.15,161.17 L85.65,160.95 L86.15,160.73 L86.65,160.50 L87.15,160.28 L87.65,160.06 L88.15,159.84 L88.65,159.62 L89.15,159.40 L89.65,159.18 L90.16,158.96 L90.66,158.74 L91.16,158.52 L91.66,158.30 L92.16,158.08 L92.66,157.86 L93.16,157.64 L93.66,157.42 L94.16,157.20 L94.66,156.98 L95.16,156.75 L95.66,156.53 L96.17,156.31 L96.67,156.09 L97.17,155.87 L97.67,155.65 L98.17,155.43 L98.67,155.21 L99.17,154.99 L99.67,154.77 L100.17,154.55 L100.67,154.33 L101.17,154.11 L101.68,153.89 L102.18,153.67 L102.68,153.45 L103.18,153.22 L103.68,153.00 L104.18,152.78 L104.68,152.56 L105.18,152.34 L105.68,152.12 L106.18,151.90 L106.68,151.68 L107.18,151.46 L107.69,151.24 L108.19,151.02 L108.69,150.80 L109.19,150.58 L109.69,150.36 L110.19,150.14 L110.69,149.92 L111.19,149.69 L111.69,149.47 L112.19,149.25 L112.69,149.03 L113.19,148.81 L113.70,148.59 L114.20,148.37 L114.70,148.15 L115.20,147.93 L115.70,147.71 L116.20,147.49 L116.70,147.27 L117.20,147.05 L117.70,146.83 L118.20,146.61 L118.70,146.39 L119.21,146.16 L119.71,145.94 L120.21,145.72 L120.71,145.50 L121.21,145.28 L121.71,145.06 L122.21,144.84 L122.71,144.62 L123.21,144.40 L123.71,144.18 L124.21,143.96 L124.71,143.74 L125.22,143.52 L125.72,143.30 L126.22,143.08 L126.72,142.86 L127.22,142.63 L127.72,142.41 L128.22,142.19 L128.72,141.97 L129.22,141.75 L129.72,141.53 L130.22,141.31 L130.73,141.09 L131.23,140.87 L131.73,140.65 L132.23,140.43 L132.73,140.21 L133.23,139.99 L133.73,139.77 L134.23,139.55 L134.73,139.33 L135.23,139.11 L135.73,138.88 L136.23,138.66 L136.74,138.44 L137.24,138.22 L137.74,138.00 L138.24,137.78 L138.74,137.56 L139.24,137.34 L139.74,137.12 L140.24,136.90 L140.74,136.68 L141.24,136.46 L141.74,136.24 L142.24,136.02 L142.75,135.80 L143.25,135.58 L143.75,135.35 L144.25,135.13 L144.75,134.91 L145.25,134.69 L145.75,134.47 L146.25,134.25 L146.75,134.03 L147.25,133.48 L147.75,132.59 L148.26,131.71 L148.76,130.83 L149.26,129.95 L149.76,129.06 L150.26,128.18 L150.76,127.30 L151.26,126.42 L151.76,125.53 L152.26,124.65 L152.76,123.77 L153.26,122.89 L153.76,122.00 L154.27,121.12 L154.77,120.24 L155.27,119.36 L155.77,118.47 L156.27,117.59 L156.77,116.71 L157.27,115.83 L157.77,114.94 L158.27,114.06 L158.77,113.18 L159.27,112.30 L159.78,111.41 L160.28,110.53 L160.78,109.65 L161.28,108.77 L161.78,107.88 L162.28,107.00 L162.78,106.12 L163.28,105.24 L163.78,104.35 L164.28,103.47 L164.78,102.59 L165.28,101.71 L165.79,100.82 L166.29,99.94 L166.79,99.06 L167.29,98.18 L167.79,97.29 L168.29,96.41 L168.79,95.53 L169.29,94.65 L169.79,93.76 L170.29,92.88 L170.79,92.00 L171.29,91.12 L171.80,90.23 L172.30,89.35 L172.80,88.47 L173.30,87.59 L173.80,86.70 L174.30,85.82 L174.80,84.94 L175.30,84.06 L175.80,83.17 L176.30,82.29 L176.80,81.41 L177.31,80.53 L177.81,79.64 L178.31,78.76 L178.81,77.88 L179.31,77.00 L179.81,76.11 L180.31,75.23 L180.81,74.35 L181.31,73.47 L181.81,72.58 L182.31,71.70 L182.81,70.82 L183.32,69.94 L183.82,69.05 L184.32,68.17 L184.82,67.29 L185.32,66.41 L185.82,65.53 L186.32,64.64 L186.82,63.76 L187.32,62.88 L187.82,62.00 L188.32,61.11 L188.83,60.23 L189.33,59.35 L189.83,58.47 L190.33,57.58 L190.83,56.70 L191.33,55.82 L191.83,54.94 L192.33,54.05 L192.83,53.17 L193.33,52.29 L193.83,51.41 L194.33,50.52 L194.84,49.64 L195.34,48.76 L195.84,47.88 L196.34,46.99 L196.84,46.11 L197.34,45.23 L197.84,44.35 L198.34,43.46 L198.84,42.58 L199.34,41.70 L199.84,40.82 L200.34,39.93 L200.85,39.05 L201.35,38.17 L201.85,37.29 L202.35,36.40 L202.85,35.52 L203.35,34.64 L203.85,33.76 L204.35,32.87 L204.85,31.99 L205.35,31.11 L205.85,30.23 L206.36,29.34 L206.86,28.46 L207.36,27.58 L207.86,26.70 L208.36,25.81 L208.86,24.93 L209.36,24.05 L209.86,23.17 L210.36,22.28 L210.86,21.40 L211.36,20.52 L211.86,19.64 L212.37,18.75 L212.87,17.87 L213.37,16.99 L213.87,16.11 L214.37,15.22 L214.87,14.34 L215.37,13.46 L215.87,12.58 L216.37,11.69 L216.87,10.81 L217.37,9.93 L217.88,9.05 L218.38,8.16 L218.88,7.28 L219.38,6.40 L219.88,5.52 L220.38,4.63 L220.88,3.75 L221.38,2.87 L221.88,1.99 L222.38,1.10 L222.88,0.22 L223.38,-0.66 L223.89,-1.54 L224.39,-2.43 L224.89,-3.31 L225.39,-4.19 L225.89,-5.07 L226.39,-5.96 L226.89,-6.84 L227.39,-7.72 L227.89,-8.60 L228.39,-9.49 L228.89,-10.37 L229.39,-11.25 L229.90,-12.13 L230.40,-13.01 L230.90,-13.90 L231.40,-14.78 L231.90,-15.66 L232.40,-16.54 L232.90,-17.43 L233.40,-18.31 L233.90,-19.19 L234.40,-20.07 L234.90,-20.96 L235.41,-21.84 L235.91,-22.72 L236.41,-23.60 L236.91,-24.49 L237.41,-25.37 L237.91,-26.25 L238.41,-27.13 L238.91,-28.02 L239.41,-28.90 L239.91,-29.78 L240.41,-30.66 L240.91,-31.55 L241.42,-32.43 L241.92,-33.31 L242.42,-34.19 L242.92,-35.08 L243.42,-35.96 L243.92,-36.84 L244.42,-37.72 L244.92,-38.61 L245.42,-39.49 L245.92,-40.37 L246.42,-41.25 L246.93,-42.14 L247.43,-43.02 L247.93,-43.90 L248.43,-44.78 L248.93,-45.67 L249.43,-46.55 L249.93,-47.43 L250.43,-48.31 L250.93,-49.20 L251.43,-50.08 L251.93,-50.96 L252.43,-51.84 L252.94,-52.73 L253.44,-53.61 L253.94,-54.49 L254.44,-55.37 L254.94,-56.26 L255.44,-57.14 L255.94,-58.02 L256.44,-58.90 L256.94,-59.79 L257.44,-60.67 L257.94,-61.55 L258.44,-62.43 L258.95,-63.32 L259.45,-64.20 L259.95,-65.08 L260.45,-65.96 L260.95,-66.85 L261.45,-67.73 L261.95,-68.61 L262.45,-69.49 L262.95,-70.38 L263.45,-71.26 L263.95,-72.14 L264.46,-73.02 L264.96,-73.91 L265.46,-74.79 L265.96,-75.67 L266.46,-76.55 L266.96,-77.44 L267.46,-78.32 L267.96,-79.20 L268.46,-80.08 L268.96,-80.97 L269.46,-81.85 L269.96,-82.73 L270.47,-83.61 L270.97,-84.50 L271.47,-85.38 L271.97,-86.26 L272.47,-87.14 L272.97,-88.02 L273.47,-88.91 L273.97,-89.79 L274.47,-90.67 L274.97,-91.55 L275.47,-92.44 L275.98,-93.32 L276.48,-94.20 L276.98,-95.08 L277.48,-95.97 L277.98,-96.85 L278.48,-97.73 L278.98,-98.61 L279.48,-99.50 L279.98,-100.38 L280.48,-101.26 L280.98,-102.14 L281.48,-103.03 L281.99,-103.91 L282.49,-104.79 L282.99,-105.67 L283.49,-106.56 L283.99,-107.44 L284.49,-108.32 L284.99,-109.20 L285.49,-110.09 L285.99,-110.97 L286.49,-111.85 L286.99,-112.73 L287.49,-113.62 L288.00,-114.50 L288.50,-115.38 L289.00,-116.26 L289.50,-117.15 L290.00,-118.03 L290.50,-118.91" style="stroke-width: 1; stroke: rgb(144, 19, 254);"/><path d=" M0.00,156.34 L0.50,156.33 L1.00,156.31 L1.50,156.30 L2.00,156.28 L2.50,156.27 L3.01,156.25 L3.51,156.24 L4.01,156.22 L4.51,156.20 L5.01,156.19 L5.51,156.17 L6.01,156.15 L6.51,156.14 L7.01,156.12 L7.51,156.10 L8.01,156.09 L8.51,156.07 L9.02,156.05 L9.52,156.03 L10.02,156.02 L10.52,156.00 L11.02,155.98 L11.52,155.96 L12.02,155.94 L12.52,155.92 L13.02,155.90 L13.52,155.89 L14.02,155.87 L14.53,155.85 L15.03,155.83 L15.53,155.81 L16.03,155.79 L16.53,155.77 L17.03,155.75 L17.53,155.73 L18.03,155.71 L18.53,155.68 L19.03,155.66 L19.53,155.64 L20.03,155.62 L20.54,155.60 L21.04,155.58 L21.54,155.56 L22.04,155.53 L22.54,155.51 L23.04,155.49 L23.54,155.47 L24.04,155.44 L24.54,155.42 L25.04,155.40 L25.54,155.37 L26.04,155.35 L26.55,155.32 L27.05,155.30 L27.55,155.27 L28.05,155.25 L28.55,155.22 L29.05,155.20 L29.55,155.17 L30.05,155.15 L30.55,155.12 L31.05,155.10 L31.55,155.07 L32.06,155.04 L32.56,155.02 L33.06,154.99 L33.56,154.96 L34.06,154.93 L34.56,154.90 L35.06,154.88 L35.56,154.85 L36.06,154.82 L36.56,154.79 L37.06,154.76 L37.56,154.73 L38.07,154.70 L38.57,154.67 L39.07,154.64 L39.57,154.61 L40.07,154.58 L40.57,154.55 L41.07,154.52 L41.57,154.48 L42.07,154.45 L42.57,154.42 L43.07,154.39 L43.58,154.35 L44.08,154.32 L44.58,154.29 L45.08,154.25 L45.58,154.22 L46.08,154.18 L46.58,154.15 L47.08,154.11 L47.58,154.08 L48.08,154.04 L48.58,154.01 L49.08,153.97 L49.59,153.93 L50.09,153.90 L50.59,153.86 L51.09,153.82 L51.59,153.78 L52.09,153.74 L52.59,153.70 L53.09,153.67 L53.59,153.63 L54.09,153.59 L54.59,153.54 L55.09,153.50 L55.60,153.46 L56.10,153.42 L56.60,153.38 L57.10,153.34 L57.60,153.29 L58.10,153.25 L58.60,153.21 L59.10,153.16 L59.60,153.12 L60.10,153.07 L60.60,153.03 L61.11,152.98 L61.61,152.94 L62.11,152.89 L62.61,152.85 L63.11,152.80 L63.61,152.75 L64.11,152.70 L64.61,152.65 L65.11,152.60 L65.61,152.55 L66.11,152.51 L66.61,152.45 L67.12,152.40 L67.62,152.35 L68.12,152.30 L68.62,152.25 L69.12,152.20 L69.62,152.14 L70.12,152.09 L70.62,152.03 L71.12,151.98 L71.62,151.92 L72.12,151.87 L72.63,151.81 L73.13,151.76 L73.63,151.70 L74.13,151.64 L74.63,151.58 L75.13,151.52 L75.63,151.46 L76.13,151.40 L76.63,151.34 L77.13,151.28 L77.63,151.22 L78.13,151.16 L78.64,151.10 L79.14,151.03 L79.64,150.97 L80.14,150.90 L80.64,150.84 L81.14,150.77 L81.64,150.71 L82.14,150.64 L82.64,150.57 L83.14,150.50 L83.64,150.44 L84.14,150.37 L84.65,150.30 L85.15,150.23 L85.65,150.15 L86.15,150.08 L86.65,150.01 L87.15,149.94 L87.65,149.86 L88.15,149.79 L88.65,149.71 L89.15,149.64 L89.65,149.56 L90.16,149.48 L90.66,149.40 L91.16,149.32 L91.66,149.24 L92.16,149.16 L92.66,149.08 L93.16,149.00 L93.66,148.92 L94.16,148.83 L94.66,148.75 L95.16,148.66 L95.66,148.58 L96.17,148.49 L96.67,148.41 L97.17,148.32 L97.67,148.23 L98.17,148.14 L98.67,148.05 L99.17,147.96 L99.67,147.86 L100.17,147.77 L100.67,147.68 L101.17,147.58 L101.68,147.49 L102.18,147.39 L102.68,147.29 L103.18,147.19 L103.68,147.09 L104.18,146.99 L104.68,146.89 L105.18,146.79 L105.68,146.69 L106.18,146.58 L106.68,146.48 L107.18,146.37 L107.69,146.27 L108.19,146.16 L108.69,146.05 L109.19,145.94 L109.69,145.83 L110.19,145.72 L110.69,145.60 L111.19,145.49 L111.69,145.37 L112.19,145.26 L112.69,145.14 L113.19,145.02 L113.70,144.90 L114.20,144.78 L114.70,144.66 L115.20,144.54 L115.70,144.42 L116.20,144.29 L116.70,144.16 L117.20,144.04 L117.70,143.91 L118.20,143.78 L118.70,143.65 L119.21,143.52 L119.71,143.38 L120.21,143.25 L120.71,143.11 L121.21,142.98 L121.71,142.84 L122.21,142.70 L122.71,142.56 L123.21,142.42 L123.71,142.27 L124.21,142.13 L124.71,141.98 L125.22,141.83 L125.72,141.69 L126.22,141.54 L126.72,141.38 L127.22,141.23 L127.72,141.08 L128.22,140.92 L128.72,140.76 L129.22,140.61 L129.72,140.45 L130.22,140.28 L130.73,140.12 L131.23,139.96 L131.73,139.79 L132.23,139.62 L132.73,139.45 L133.23,139.28 L133.73,139.11 L134.23,138.94 L134.73,138.76 L135.23,138.58 L135.73,138.41 L136.23,138.23 L136.74,138.04 L137.24,137.86 L137.74,137.67 L138.24,137.49 L138.74,137.30 L139.24,137.11 L139.74,136.92 L140.24,136.72 L140.74,136.53 L141.24,136.33 L141.74,136.13 L142.24,135.93 L142.75,135.72 L143.25,135.52 L143.75,135.31 L144.25,135.10 L144.75,134.89 L145.25,134.68 L145.75,134.47 L146.25,134.25 L146.75,134.03 L147.25,133.48 L147.75,132.59 L148.26,131.71 L148.76,130.83 L149.26,129.95 L149.76,129.06 L150.26,128.18 L150.76,127.30 L151.26,126.42 L151.76,125.53 L152.26,124.65 L152.76,123.77 L153.26,122.89 L153.76,122.00 L154.27,121.12 L154.77,120.24 L155.27,119.36 L155.77,118.47 L156.27,117.59 L156.77,116.71 L157.27,115.83 L157.77,114.94 L158.27,114.06 L158.77,113.18 L159.27,112.30 L159.78,111.41 L160.28,110.53 L160.78,109.65 L161.28,108.77 L161.78,107.88 L162.28,107.00 L162.78,106.12 L163.28,105.24 L163.78,104.35 L164.28,103.47 L164.78,102.59 L165.28,101.71 L165.79,100.82 L166.29,99.94 L166.79,99.06 L167.29,98.18 L167.79,97.29 L168.29,96.41 L168.79,95.53 L169.29,94.65 L169.79,93.76 L170.29,92.88 L170.79,92.00 L171.29,91.12 L171.80,90.23 L172.30,89.35 L172.80,88.47 L173.30,87.59 L173.80,86.70 L174.30,85.82 L174.80,84.94 L175.30,84.06 L175.80,83.17 L176.30,82.29 L176.80,81.41 L177.31,80.53 L177.81,79.64 L178.31,78.76 L178.81,77.88 L179.31,77.00 L179.81,76.11 L180.31,75.23 L180.81,74.35 L181.31,73.47 L181.81,72.58 L182.31,71.70 L182.81,70.82 L183.32,69.94 L183.82,69.05 L184.32,68.17 L184.82,67.29 L185.32,66.41 L185.82,65.53 L186.32,64.64 L186.82,63.76 L187.32,62.88 L187.82,62.00 L188.32,61.11 L188.83,60.23 L189.33,59.35 L189.83,58.47 L190.33,57.58 L190.83,56.70 L191.33,55.82 L191.83,54.94 L192.33,54.05 L192.83,53.17 L193.33,52.29 L193.83,51.41 L194.33,50.52 L194.84,49.64 L195.34,48.76 L195.84,47.88 L196.34,46.99 L196.84,46.11 L197.34,45.23 L197.84,44.35 L198.34,43.46 L198.84,42.58 L199.34,41.70 L199.84,40.82 L200.34,39.93 L200.85,39.05 L201.35,38.17 L201.85,37.29 L202.35,36.40 L202.85,35.52 L203.35,34.64 L203.85,33.76 L204.35,32.87 L204.85,31.99 L205.35,31.11 L205.85,30.23 L206.36,29.34 L206.86,28.46 L207.36,27.58 L207.86,26.70 L208.36,25.81 L208.86,24.93 L209.36,24.05 L209.86,23.17 L210.36,22.28 L210.86,21.40 L211.36,20.52 L211.86,19.64 L212.37,18.75 L212.87,17.87 L213.37,16.99 L213.87,16.11 L214.37,15.22 L214.87,14.34 L215.37,13.46 L215.87,12.58 L216.37,11.69 L216.87,10.81 L217.37,9.93 L217.88,9.05 L218.38,8.16 L218.88,7.28 L219.38,6.40 L219.88,5.52 L220.38,4.63 L220.88,3.75 L221.38,2.87 L221.88,1.99 L222.38,1.10 L222.88,0.22 L223.38,-0.66 L223.89,-1.54 L224.39,-2.43 L224.89,-3.31 L225.39,-4.19 L225.89,-5.07 L226.39,-5.96 L226.89,-6.84 L227.39,-7.72 L227.89,-8.60 L228.39,-9.49 L228.89,-10.37 L229.39,-11.25 L229.90,-12.13 L230.40,-13.01 L230.90,-13.90 L231.40,-14.78 L231.90,-15.66 L232.40,-16.54 L232.90,-17.43 L233.40,-18.31 L233.90,-19.19 L234.40,-20.07 L234.90,-20.96 L235.41,-21.84 L235.91,-22.72 L236.41,-23.60 L236.91,-24.49 L237.41,-25.37 L237.91,-26.25 L238.41,-27.13 L238.91,-28.02 L239.41,-28.90 L239.91,-29.78 L240.41,-30.66 L240.91,-31.55 L241.42,-32.43 L241.92,-33.31 L242.42,-34.19 L242.92,-35.08 L243.42,-35.96 L243.92,-36.84 L244.42,-37.72 L244.92,-38.61 L245.42,-39.49 L245.92,-40.37 L246.42,-41.25 L246.93,-42.14 L247.43,-43.02 L247.93,-43.90 L248.43,-44.78 L248.93,-45.67 L249.43,-46.55 L249.93,-47.43 L250.43,-48.31 L250.93,-49.20 L251.43,-50.08 L251.93,-50.96 L252.43,-51.84 L252.94,-52.73 L253.44,-53.61 L253.94,-54.49 L254.44,-55.37 L254.94,-56.26 L255.44,-57.14 L255.94,-58.02 L256.44,-58.90 L256.94,-59.79 L257.44,-60.67 L257.94,-61.55 L258.44,-62.43 L258.95,-63.32 L259.45,-64.20 L259.95,-65.08 L260.45,-65.96 L260.95,-66.85 L261.45,-67.73 L261.95,-68.61 L262.45,-69.49 L262.95,-70.38 L263.45,-71.26 L263.95,-72.14 L264.46,-73.02 L264.96,-73.91 L265.46,-74.79 L265.96,-75.67 L266.46,-76.55 L266.96,-77.44 L267.46,-78.32 L267.96,-79.20 L268.46,-80.08 L268.96,-80.97 L269.46,-81.85 L269.96,-82.73 L270.47,-83.61 L270.97,-84.50 L271.47,-85.38 L271.97,-86.26 L272.47,-87.14 L272.97,-88.02 L273.47,-88.91 L273.97,-89.79 L274.47,-90.67 L274.97,-92.66 L275.47,-94.97 L275.98,-97.30 L276.48,-99.65 L276.98,-102.02 L277.48,-104.42 L277.98,-106.84 L278.48,-109.28 L278.98,-111.74 L279.48,-114.23 L279.98,-116.73 L280.48,-119.27 L280.98,-121.82 L281.48,-124.40 L281.99,-127.00 L282.49,-129.63 L282.99,-132.28 L283.49,-134.95 L283.99,-137.65 L284.49,-140.38 L284.99,-143.13 L285.49,-145.90 L285.99,-148.70 L286.49,-151.53 L286.99,-154.38 L287.49,-157.26 L288.00,-160.16 L288.50,-163.09 L289.00,-166.05 L289.50,-169.04 L290.00,-172.05 L290.50,-175.09" style="stroke-width: 2; stroke: rgb(0, 0, 0); stroke-dasharray: 7.5, 6;"/><path d=" M0.00,133.92 L0.50,133.92 L1.00,133.92 L1.50,133.92 L2.00,133.92 L2.50,133.92 L3.01,133.92 L3.51,133.92 L4.01,133.92 L4.51,133.92 L5.01,133.92 L5.51,133.92 L6.01,133.92 L6.51,133.92 L7.01,133.92 L7.51,133.92 L8.01,133.92 L8.51,133.92 L9.02,133.92 L9.52,133.92 L10.02,133.92 L10.52,133.92 L11.02,133.92 L11.52,133.92 L12.02,133.92 L12.52,133.92 L13.02,133.92 L13.52,133.92 L14.02,133.92 L14.53,133.92 L15.03,133.92 L15.53,133.92 L16.03,133.92 L16.53,133.92 L17.03,133.92 L17.53,133.92 L18.03,133.92 L18.53,133.92 L19.03,133.92 L19.53,133.92 L20.03,133.92 L20.54,133.92 L21.04,133.92 L21.54,133.92 L22.04,133.92 L22.54,133.92 L23.04,133.92 L23.54,133.92 L24.04,133.92 L24.54,133.92 L25.04,133.92 L25.54,133.92 L26.04,133.92 L26.55,133.92 L27.05,133.92 L27.55,133.92 L28.05,133.92 L28.55,133.92 L29.05,133.92 L29.55,133.92 L30.05,133.92 L30.55,133.92 L31.05,133.92 L31.55,133.92 L32.06,133.92 L32.56,133.92 L33.06,133.92 L33.56,133.92 L34.06,133.92 L34.56,133.92 L35.06,133.92 L35.56,133.92 L36.06,133.92 L36.56,133.92 L37.06,133.92 L37.56,133.92 L38.07,133.92 L38.57,133.92 L39.07,133.92 L39.57,133.92 L40.07,133.92 L40.57,133.92 L41.07,133.92 L41.57,133.92 L42.07,133.92 L42.57,133.92 L43.07,133.92 L43.58,133.92 L44.08,133.92 L44.58,133.92 L45.08,133.92 L45.58,133.92 L46.08,133.92 L46.58,133.92 L47.08,133.92 L47.58,133.92 L48.08,133.92 L48.58,133.92 L49.08,133.92 L49.59,133.92 L50.09,133.92 L50.59,133.92 L51.09,133.92 L51.59,133.92 L52.09,133.92 L52.59,133.92 L53.09,133.92 L53.59,133.92 L54.09,133.92 L54.59,133.92 L55.09,133.92 L55.60,133.92 L56.10,133.92 L56.60,133.92 L57.10,133.92 L57.60,133.92 L58.10,133.92 L58.60,133.92 L59.10,133.92 L59.60,133.92 L60.10,133.92 L60.60,133.92 L61.11,133.92 L61.61,133.92 L62.11,133.92 L62.61,133.92 L63.11,133.92 L63.61,133.92 L64.11,133.92 L64.61,133.92 L65.11,133.92 L65.61,133.92 L66.11,133.92 L66.61,133.92 L67.12,133.92 L67.62,133.92 L68.12,133.92 L68.62,133.92 L69.12,133.92 L69.62,133.92 L70.12,133.92 L70.62,133.92 L71.12,133.92 L71.62,133.92 L72.12,133.92 L72.63,133.92 L73.13,133.92 L73.63,133.92 L74.13,133.92 L74.63,133.92 L75.13,133.92 L75.63,133.92 L76.13,133.92 L76.63,133.92 L77.13,133.92 L77.63,133.92 L78.13,133.92 L78.64,133.92 L79.14,133.92 L79.64,133.92 L80.14,133.92 L80.64,133.92 L81.14,133.92 L81.64,133.92 L82.14,133.92 L82.64,133.92 L83.14,133.92 L83.64,133.92 L84.14,133.92 L84.65,133.92 L85.15,133.92 L85.65,133.92 L86.15,133.92 L86.65,133.92 L87.15,133.92 L87.65,133.92 L88.15,133.92 L88.65,133.92 L89.15,133.92 L89.65,133.92 L90.16,133.92 L90.66,133.92 L91.16,133.92 L91.66,133.92 L92.16,133.92 L92.66,133.92 L93.16,133.92 L93.66,133.92 L94.16,133.92 L94.66,133.92 L95.16,133.92 L95.66,133.92 L96.17,133.92 L96.67,133.92 L97.17,133.92 L97.67,133.92 L98.17,133.92 L98.67,133.92 L99.17,133.92 L99.67,133.92 L100.17,133.92 L100.67,133.92 L101.17,133.92 L101.68,133.92 L102.18,133.92 L102.68,133.92 L103.18,133.92 L103.68,133.92 L104.18,133.92 L104.68,133.92 L105.18,133.92 L105.68,133.92 L106.18,133.92 L106.68,133.92 L107.18,133.92 L107.69,133.92 L108.19,133.92 L108.69,133.92 L109.19,133.92 L109.69,133.92 L110.19,133.92 L110.69,133.92 L111.19,133.92 L111.69,133.92 L112.19,133.92 L112.69,133.92 L113.19,133.92 L113.70,133.92 L114.20,133.92 L114.70,133.92 L115.20,133.92 L115.70,133.92 L116.20,133.92 L116.70,133.92 L117.20,133.92 L117.70,133.92 L118.20,133.92 L118.70,133.92 L119.21,133.92 L119.71,133.92 L120.21,133.92 L120.71,133.92 L121.21,133.92 L121.71,133.92 L122.21,133.92 L122.71,133.92 L123.21,133.92 L123.71,133.92 L124.21,133.92 L124.71,133.92 L125.22,133.92 L125.72,133.92 L126.22,133.92 L126.72,133.92 L127.22,133.92 L127.72,133.92 L128.22,133.92 L128.72,133.92 L129.22,133.92 L129.72,133.92 L130.22,133.92 L130.73,133.92 L131.23,133.92 L131.73,133.92 L132.23,133.92 L132.73,133.92 L133.23,133.92 L133.73,133.92 L134.23,133.92 L134.73,133.92 L135.23,133.92 L135.73,133.92 L136.23,133.92 L136.74,133.92 L137.24,133.92 L137.74,133.92 L138.24,133.92 L138.74,133.92 L139.24,133.92 L139.74,133.92 L140.24,133.92 L140.74,133.92 L141.24,133.92 L141.74,133.92 L142.24,133.92 L142.75,133.92 L143.25,133.92 L143.75,133.92 L144.25,133.92 L144.75,133.92 L145.25,133.92 L145.75,133.92 L146.25,133.92 L146.75,133.92 L147.25,133.48 L147.75,132.59 L148.26,131.71 L148.76,130.83 L149.26,129.95 L149.76,129.06 L150.26,128.18 L150.76,127.30 L151.26,126.42 L151.76,125.53 L152.26,124.65 L152.76,123.77 L153.26,122.89 L153.76,122.00 L154.27,121.12 L154.77,120.24 L155.27,119.36 L155.77,118.47 L156.27,117.59 L156.77,116.71 L157.27,115.83 L157.77,114.94 L158.27,114.06 L158.77,113.18 L159.27,112.30 L159.78,111.41 L160.28,110.53 L160.78,109.65 L161.28,108.77 L161.78,107.88 L162.28,107.00 L162.78,106.12 L163.28,105.24 L163.78,104.35 L164.28,103.47 L164.78,102.59 L165.28,101.71 L165.79,100.82 L166.29,99.94 L166.79,99.06 L167.29,98.18 L167.79,97.29 L168.29,96.41 L168.79,95.53 L169.29,94.65 L169.79,93.76 L170.29,92.88 L170.79,92.00 L171.29,91.12 L171.80,90.23 L172.30,89.35 L172.80,88.47 L173.30,87.59 L173.80,86.70 L174.30,85.82 L174.80,84.94 L175.30,84.06 L175.80,83.17 L176.30,82.29 L176.80,81.41 L177.31,80.53 L177.81,79.64 L178.31,78.76 L178.81,77.88 L179.31,77.00 L179.81,76.11 L180.31,75.23 L180.81,74.35 L181.31,73.47 L181.81,72.58 L182.31,71.70 L182.81,70.82 L183.32,69.94 L183.82,69.05 L184.32,68.17 L184.82,67.29 L185.32,66.41 L185.82,65.53 L186.32,64.64 L186.82,63.76 L187.32,62.88 L187.82,62.00 L188.32,61.11 L188.83,60.23 L189.33,59.35 L189.83,58.47 L190.33,57.58 L190.83,56.70 L191.33,55.82 L191.83,54.94 L192.33,54.05 L192.83,53.17 L193.33,52.29 L193.83,51.41 L194.33,50.52 L194.84,49.64 L195.34,48.76 L195.84,47.88 L196.34,46.99 L196.84,46.11 L197.34,45.23 L197.84,44.35 L198.34,43.46 L198.84,42.58 L199.34,41.70 L199.84,40.82 L200.34,39.93 L200.85,39.05 L201.35,38.17 L201.85,37.29 L202.35,36.40 L202.85,35.52 L203.35,34.64 L203.85,33.76 L204.35,32.87 L204.85,31.99 L205.35,31.11 L205.85,30.23 L206.36,29.34 L206.86,28.46 L207.36,27.58 L207.86,26.70 L208.36,25.81 L208.86,24.93 L209.36,24.05 L209.86,23.17 L210.36,22.28 L210.86,21.40 L211.36,20.52 L211.86,19.64 L212.37,18.75 L212.87,17.87 L213.37,16.99 L213.87,16.11 L214.37,15.22 L214.87,14.34 L215.37,13.46 L215.87,12.58 L216.37,11.69 L216.87,10.81 L217.37,9.93 L217.88,9.05 L218.38,8.16 L218.88,7.28 L219.38,6.40 L219.88,5.52 L220.38,4.63 L220.88,3.75 L221.38,2.87 L221.88,1.99 L222.38,1.10 L222.88,0.22 L223.38,-0.66 L223.89,-1.54 L224.39,-2.43 L224.89,-3.31 L225.39,-4.19 L225.89,-5.07 L226.39,-5.96 L226.89,-6.84 L227.39,-7.72 L227.89,-8.60 L228.39,-9.49 L228.89,-10.37 L229.39,-11.25 L229.90,-12.13 L230.40,-13.01 L230.90,-13.90 L231.40,-14.78 L231.90,-15.66 L232.40,-16.54 L232.90,-17.43 L233.40,-18.31 L233.90,-19.19 L234.40,-20.07 L234.90,-20.96 L235.41,-21.84 L235.91,-22.72 L236.41,-23.60 L236.91,-24.49 L237.41,-25.37 L237.91,-26.25 L238.41,-27.13 L238.91,-28.02 L239.41,-28.90 L239.91,-29.78 L240.41,-30.66 L240.91,-31.55 L241.42,-32.43 L241.92,-33.31 L242.42,-34.19 L242.92,-35.08 L243.42,-35.96 L243.92,-36.84 L244.42,-37.72 L244.92,-38.61 L245.42,-39.49 L245.92,-40.37 L246.42,-41.25 L246.93,-42.14 L247.43,-43.02 L247.93,-43.90 L248.43,-44.78 L248.93,-45.67 L249.43,-46.55 L249.93,-47.43 L250.43,-48.31 L250.93,-49.20 L251.43,-50.08 L251.93,-50.96 L252.43,-51.84 L252.94,-52.73 L253.44,-53.61 L253.94,-54.49 L254.44,-55.37 L254.94,-56.26 L255.44,-57.14 L255.94,-58.02 L256.44,-58.90 L256.94,-59.79 L257.44,-60.67 L257.94,-61.55 L258.44,-62.43 L258.95,-63.32 L259.45,-64.20 L259.95,-65.08 L260.45,-65.96 L260.95,-66.85 L261.45,-67.73 L261.95,-68.61 L262.45,-69.49 L262.95,-70.38 L263.45,-71.26 L263.95,-72.14 L264.46,-73.02 L264.96,-73.91 L265.46,-74.79 L265.96,-75.67 L266.46,-76.55 L266.96,-77.44 L267.46,-78.32 L267.96,-79.20 L268.46,-80.08 L268.96,-80.97 L269.46,-81.85 L269.96,-82.73 L270.47,-83.61 L270.97,-84.50 L271.47,-85.38 L271.97,-86.26 L272.47,-87.14 L272.97,-88.02 L273.47,-88.91 L273.97,-89.79 L274.47,-90.67 L274.97,-91.55 L275.47,-92.44 L275.98,-93.32 L276.48,-94.20 L276.98,-95.08 L277.48,-95.97 L277.98,-96.85 L278.48,-97.73 L278.98,-98.61 L279.48,-99.50 L279.98,-100.38 L280.48,-101.26 L280.98,-102.14 L281.48,-103.03 L281.99,-103.91 L282.49,-104.79 L282.99,-105.67 L283.49,-106.56 L283.99,-107.44 L284.49,-108.32 L284.99,-109.20 L285.49,-110.09 L285.99,-110.97 L286.49,-111.85 L286.99,-112.73 L287.49,-113.62 L288.00,-114.50 L288.50,-115.38 L289.00,-116.26 L289.50,-117.15 L290.00,-118.03 L290.50,-118.91" style="stroke-width: 2; stroke: rgb(126, 211, 33); stroke-dasharray: 7.5, 6;"/></g><g style="font-family: Arial;"><text text-anchor="middle" font-size="11" dominant-baseline="hanging" stroke="none" fill="#808080" x="37.79999999999999" y="140.92187500000003">-2</text><text text-anchor="middle" font-size="11" dominant-baseline="hanging" stroke="none" fill="#808080" x="92.39999999999999" y="140.92187500000003">-1</text><text text-anchor="middle" font-size="11" dominant-baseline="hanging" stroke="none" fill="#808080" x="201.6" y="140.92187500000003">1</text><text text-anchor="middle" font-size="11" dominant-baseline="hanging" stroke="none" fill="#808080" x="256.2" y="140.92187500000003">2</text><text text-anchor="middle" font-size="11" dominant-baseline="hanging" stroke="none" fill="#808080" x="139" y="138.92187500000003">0</text></g><g style="font-family: Arial;"><text text-anchor="end" dominant-baseline="middle" font-size="11" stroke="none" fill="#808080" x="139" y="230.12187500000005">-1</text><text text-anchor="end" dominant-baseline="middle" font-size="11" stroke="none" fill="#808080" x="139" y="37.72187500000004">1</text></g><rect class="real" x="1" y="1" width="288.5" height="241.92187500000003" style="fill: transparent; stroke: none;"/></g></g></g><g/></g><g/><g/><!-- react-empty: 3790 --></svg>
        <svg xmlns="http://www.w3.org/2000/svg" width="660" height="300" style="width:660px;height:300px;font-family:Arial;background:transparent;"><g style="transform:matrix(0.913545457642601,-0.40673664307580015,0.40673664307580015,0.913545457642601,-80.41017792541271,47.69985582358359);"><g><text x="50.734375" y="204" style="white-space:pre;stroke:none;fill:rgb(144, 19, 254);font-size:15px;font-family:Arial;font-weight:400;font-style:normal;dominant-baseline:text-before-edge;text-decoration:none solid rgb(144, 19, 254);">PreLU</text></g></g><g style="transform:matrix(0.780212108936683,-0.6255150398420276,0.6255150398420276,0.780212108936683,-117.17257844496123,132.52753379721645);"><g><text x="115.3984375" y="224" style="white-space:pre;stroke:none;fill:rgb(208, 2, 27);font-size:15px;font-family:Arial;font-weight:400;font-style:normal;dominant-baseline:text-before-edge;text-decoration:none solid rgb(208, 2, 27);">tanh</text></g></g><g style="transform:matrix(0.9988399975085459,-0.048152459720434054,0.048152459720434054,0.9988399975085459,-8.887917361004938,3.0567555869160685);"><g><text x="44.40625" y="177" style="white-space:pre;stroke:none;fill:rgb(0, 0, 0);font-size:15px;font-family:Arial;font-weight:400;font-style:normal;dominant-baseline:text-before-edge;text-decoration:none solid rgb(0, 0, 0);">ELU</text></g></g><g style="transform:matrix(0.9998793586966922,-0.015532805679965123,0.015532805679965123,0.9998793586966922,-2.235005117221931,2.2386842012146246);"><g><text x="123.8203125" y="136" style="white-space:pre;stroke:none;fill:rgb(126, 211, 33);font-size:15px;font-family:Arial;font-weight:400;font-style:normal;dominant-baseline:text-before-edge;text-decoration:none solid rgb(126, 211, 33);">ReLU</text></g></g><g style="transform:matrix(0.9254082743314805,-0.37897166886039285,0.37897166886039285,0.9254082743314805,-30.8710833527079,63.1559818082941);"><g><text x="129.1640625" y="101" style="white-space:pre;stroke:none;fill:rgb(74, 144, 226);font-size:15px;font-family:Arial;font-weight:400;font-style:normal;dominant-baseline:text-before-edge;text-decoration:none solid rgb(74, 144, 226);">sigm</text></g></g></svg>
</svg>
