<?xml version="1.0" encoding="utf-8"?>
<!-- Generator: Adobe Illustrator 16.0.0, SVG Export Plug-In . SVG Version: 6.00 Build 0)  -->
<!DOCTYPE svg PUBLIC "-//W3C//DTD SVG 1.1//EN" "http://www.w3.org/Graphics/SVG/1.1/DTD/svg11.dtd">
<svg version="1.1" id="Layer_1" xmlns="http://www.w3.org/2000/svg" xmlns:xlink="http://www.w3.org/1999/xlink" x="0px" y="0px"
	 width="595.275px" height="269.293px" viewBox="0.137 555.146 595.275 269.293"
	 enable-background="new 0.137 555.146 595.275 269.293" xml:space="preserve">
<g>
	<g>
		
			<line fill="none" stroke="#231F20" stroke-width="1.5" stroke-miterlimit="10" x1="227.952" y1="745.847" x2="235.909" y2="739.832"/>
		<g>
			<polygon fill="#231F20" points="237.292,743.474 240.202,736.585 232.781,737.509 			"/>
		</g>
	</g>
</g>
<g>
	<g>
		<defs>
			<rect id="SVGID_1_" x="24.353" y="557.935" width="267.876" height="267.877"/>
		</defs>
		<clipPath id="SVGID_2_">
			<use xlink:href="#SVGID_1_"  overflow="visible"/>
		</clipPath>
		<path clip-path="url(#SVGID_2_)" fill="none" stroke="#FF0000" stroke-width="1.2" d="M90.536,553.146
			c48.437,25.246,22.378,71.705,2.652,114.537c-20.781,45.025-10.934,101.414,50.22,73.869
			c53.846-24.271,89.646-26.246,114.188,78.74"/>
	</g>
</g>
<path fill="none" stroke="#FF0000" stroke-width="1.2" d="M424.545,558.125l133.773,262.465"/>
<path fill="none" stroke="#000000" stroke-width="0.5" stroke-dasharray="1.5,1.5" d="M240.466,820.238
	c-11.852-50.762-24.702-67.186-36.526-72.568c-17.967-8.172-38.423,2.436-53.767,8.93c-29.764,12.5-63.641,13.881-77.276-17.588
	c-23-53.199,20.455-90.105,28.273-137.539c2.706-16.504-7.306-27.869-18.397-33.822c-6.225-3.247-14.882-6.494-22.999-9.741"/>
<path fill="none" stroke="#000000" stroke-width="0.5" stroke-dasharray="1.5,1.5" d="M122.952,558.044
	c8.523,12.662,14.882,31.604,11.094,48.163c-5.547,24.218-15.908,47.568-25.568,68.511c-8.931,19.211-10.823,38.693-5.684,49.084
	c7.035,13.908,25.705,5.953,33.554,2.436c26.518-11.961,58.176-20.727,82.799-7.98c25.976,16.232,36.526,39.691,45.728,66.455"/>
<path fill="none" stroke="#000000" stroke-width="0.5" stroke-dasharray="1.5,1.5" d="M443.484,558.125L577.26,820.183"/>
<path fill="none" stroke="#000000" stroke-width="0.5" stroke-dasharray="1.5,1.5" d="M405.061,558.125l133.775,262.059"/>
<path fill="none" stroke="#000000" stroke-width="0.6" d="M3.518,558.206H265.17v262.466H3.518V558.206z"/>
<path fill="none" stroke="#000000" stroke-width="0.6" d="M330.11,558.206h261.652v262.466H330.11V558.206z"/>
<path fill="none" stroke="#000000" stroke-width="0.6" d="M0,0"/>
<path d="M446.98,637.64l1.734-2.775l1.537,2.859L446.98,637.64z"/>
<path d="M459.336,631.001l-1.734,2.775l-1.537-2.86L459.336,631.001z"/>
<path d="M457.689,631.886"/>
<path d="M0,0"/>
<path d="M462.945,628.98l1.734-2.774l1.536,2.86L462.945,628.98z"/>
<path d="M475.3,622.343l-1.734,2.775l-1.537-2.859L475.3,622.343z"/>
<path d="M473.654,623.226"/>
<path d="M0,0"/>
<path d="M90.669,637.296l3.267-0.225l-1.414,2.923L90.669,637.296z"/>
<path d="M102.418,642.98l-3.265,0.225l1.414-2.922L102.418,642.98z"/>
<path d="M100.738,642.167"/>
<path d="M0,0"/>
<path d="M106.15,644.675l3.266-0.209l-1.427,2.918L106.15,644.675z"/>
<path d="M118.352,650.646l-3.268,0.209l1.43-2.916L118.352,650.646z"/>
<path d="M116.675,649.826"/>
<path d="M0,0"/>
<path d="M361.416,689.546l-5.683,3.248V686.3L361.416,689.546z"/>
<path d="M357.682,689.546"/>
<text transform="matrix(1 0 0 1 291.8777 677.9644)" font-family="'LatinModernMath-Regular'" font-size="16">Ø</text>
<circle fill="#FFFFFF" stroke="#000000" stroke-width="0.2" cx="41.669" cy="654.534" r="2.706"/>
<circle fill="#FFFFFF" stroke="#000000" stroke-width="0.2" cx="37.07" cy="638.299" r="2.706"/>
<circle fill="#FFFFFF" stroke="#000000" stroke-width="0.2" cx="12.717" cy="654.534" r="2.706"/>
<circle fill="#FFFFFF" stroke="#000000" stroke-width="0.2" cx="12.988" cy="691.333" r="2.706"/>
<circle fill="#FFFFFF" stroke="#000000" stroke-width="0.2" cx="40.858" cy="679.426" r="2.706"/>
<circle fill="#FFFFFF" stroke="#000000" stroke-width="0.2" cx="52.764" cy="687.002" r="2.706"/>
<circle fill="#FFFFFF" stroke="#000000" stroke-width="0.2" cx="53.034" cy="695.391" r="2.706"/>
<circle fill="#FFFFFF" stroke="#000000" stroke-width="0.2" cx="44.916" cy="703.508" r="2.706"/>
<circle fill="#FFFFFF" stroke="#000000" stroke-width="0.2" cx="57.093" cy="716.225" r="2.706"/>
<circle fill="#FFFFFF" stroke="#000000" stroke-width="0.2" cx="28.952" cy="724.073" r="2.706"/>
<circle fill="#FFFFFF" stroke="#000000" stroke-width="0.2" cx="49.787" cy="744.637" r="2.706"/>
<circle fill="#FFFFFF" stroke="#000000" stroke-width="0.2" cx="29.223" cy="764.93" r="2.706"/>
<circle fill="#FFFFFF" stroke="#000000" stroke-width="0.2" cx="74.681" cy="760.059" r="2.706"/>
<circle fill="#FFFFFF" stroke="#000000" stroke-width="0.2" cx="96.327" cy="772.778" r="2.706"/>
<circle fill="#FFFFFF" stroke="#000000" stroke-width="0.2" cx="129.068" cy="776.565" r="2.706"/>
<circle fill="#FFFFFF" stroke="#000000" stroke-width="0.2" cx="92.269" cy="801.459" r="2.706"/>
<circle fill="#FFFFFF" stroke="#000000" stroke-width="0.2" cx="141.514" cy="790.094" r="2.706"/>
<circle fill="#FFFFFF" stroke="#000000" stroke-width="0.2" cx="186.16" cy="789.284" r="2.706"/>
<circle fill="#FFFFFF" stroke="#000000" stroke-width="0.2" cx="225.395" cy="812.553" r="2.706"/>
<circle fill="#FFFFFF" stroke="#000000" stroke-width="0.2" cx="209.972" cy="779" r="2.706"/>
<circle fill="#FFFFFF" stroke="#000000" stroke-width="0.2" cx="202.937" cy="764.119" r="2.705"/>
<circle fill="#FFFFFF" stroke="#000000" stroke-width="0.2" cx="192.384" cy="763.037" r="2.705"/>
<circle fill="#FFFFFF" stroke="#000000" stroke-width="0.2" cx="183.454" cy="756.002" r="2.706"/>
<circle fill="#FFFFFF" stroke="#2E3293" stroke-width="0.7" cx="198.066" cy="745.719" r="2.706"/>
<circle fill="#FFFFFF" stroke="#000000" stroke-width="0.2" cx="41.399" cy="626.123" r="2.706"/>
<circle fill="#FFFFFF" stroke="#000000" stroke-width="0.2" cx="68.187" cy="629.911" r="2.706"/>
<circle fill="#FFFFFF" stroke="#000000" stroke-width="0.2" cx="88.209" cy="618.004" r="2.706"/>
<circle fill="#FFFFFF" stroke="#000000" stroke-width="0.2" cx="88.209" cy="605.557" r="2.706"/>
<circle fill="none" stroke="#2E3293" stroke-width="0.7" cx="101.468" cy="593.381" r="2.706"/>
<circle fill="#FFFFFF" stroke="#000000" stroke-width="0.2" cx="71.975" cy="609.887" r="2.706"/>
<circle fill="#FFFFFF" stroke="#000000" stroke-width="0.2" cx="65.751" cy="593.381" r="2.706"/>
<circle fill="#FFFFFF" stroke="#000000" stroke-width="0.2" cx="78.198" cy="581.477" r="2.706"/>
<circle fill="#FFFFFF" stroke="#000000" stroke-width="0.2" cx="49.517" cy="605.557" r="2.706"/>
<circle fill="#FFFFFF" stroke="#000000" stroke-width="0.2" cx="45.457" cy="589.053" r="2.706"/>
<circle fill="#FFFFFF" stroke="#000000" stroke-width="0.2" cx="45.457" cy="581.206" r="2.706"/>
<circle fill="#FFFFFF" stroke="#000000" stroke-width="0.2" cx="49.517" cy="576.877" r="2.706"/>
<circle fill="#FFFFFF" stroke="#000000" stroke-width="0.2" cx="29.223" cy="593.381" r="2.706"/>
<circle fill="#FFFFFF" stroke="#000000" stroke-width="0.2" cx="12.717" cy="609.617" r="2.706"/>
<circle fill="#FFFFFF" stroke="#000000" stroke-width="0.2" cx="157.749" cy="765.743" r="2.706"/>
<circle fill="#FFFFFF" stroke="#000000" stroke-width="0.2" cx="360.415" cy="653.721" r="2.706"/>
<circle fill="#FFFFFF" stroke="#000000" stroke-width="0.2" cx="393.697" cy="649.393" r="2.706"/>
<circle fill="#FFFFFF" stroke="#000000" stroke-width="0.2" cx="381.249" cy="626.393" r="2.706"/>
<circle fill="#FFFFFF" stroke="#000000" stroke-width="0.2" cx="404.249" cy="626.934" r="2.706"/>
<circle fill="#FFFFFF" stroke="#000000" stroke-width="0.2" cx="368.803" cy="613.676" r="2.706"/>
<circle fill="#FFFFFF" stroke="#000000" stroke-width="0.2" cx="356.629" cy="589.053" r="2.706"/>
<circle fill="#FFFFFF" stroke="#000000" stroke-width="0.2" cx="385.038" cy="585.535" r="2.706"/>
<circle fill="#FFFFFF" stroke="#000000" stroke-width="0.2" cx="393.697" cy="589.053" r="2.706"/>
<circle fill="#FFFFFF" stroke="#000000" stroke-width="0.2" cx="397.485" cy="581.747" r="2.706"/>
<circle fill="#FFFFFF" stroke="#000000" stroke-width="0.2" cx="401.545" cy="577.147" r="2.706"/>
<circle fill="#FFFFFF" stroke="#000000" stroke-width="0.2" cx="385.309" cy="573.088" r="2.706"/>
<circle fill="#FFFFFF" stroke="#000000" stroke-width="0.2" cx="409.66" cy="593.381" r="2.706"/>
<circle fill="#FFFFFF" stroke="#000000" stroke-width="0.2" cx="424.545" cy="618.817" r="2.706"/>
<circle fill="#FFFFFF" stroke="#2E3293" stroke-width="0.7" cx="430.766" cy="608.264" r="2.706"/>
<circle fill="#FFFFFF" stroke="#000000" stroke-width="0.2" cx="428.602" cy="635.051" r="2.706"/>
<circle fill="#FFFFFF" stroke="#000000" stroke-width="0.2" cx="439.968" cy="668.604" r="2.706"/>
<circle fill="#FFFFFF" stroke="#000000" stroke-width="0.2" cx="447.003" cy="668.604" r="2.706"/>
<circle fill="#FFFFFF" stroke="#000000" stroke-width="0.2" cx="451.06" cy="677.262" r="2.706"/>
<circle fill="#FFFFFF" stroke="#000000" stroke-width="0.2" cx="413.72" cy="678.073" r="2.706"/>
<circle fill="#FFFFFF" stroke="#000000" stroke-width="0.2" cx="393.156" cy="682.133" r="2.706"/>
<circle fill="#FFFFFF" stroke="#000000" stroke-width="0.2" cx="381.791" cy="670.227" r="2.706"/>
<circle fill="#FFFFFF" stroke="#000000" stroke-width="0.2" cx="372.593" cy="702.696" r="2.706"/>
<circle fill="#FFFFFF" stroke="#000000" stroke-width="0.2" cx="345.803" cy="728.944" r="2.706"/>
<circle fill="#FFFFFF" stroke="#000000" stroke-width="0.2" cx="403.167" cy="724.614" r="2.706"/>
<circle fill="#FFFFFF" stroke="#000000" stroke-width="0.2" cx="431.578" cy="720.285" r="2.705"/>
<circle fill="#FFFFFF" stroke="#000000" stroke-width="0.2" cx="467.838" cy="705.944" r="2.706"/>
<circle fill="#FFFFFF" stroke="#000000" stroke-width="0.2" cx="487.049" cy="740.307" r="2.706"/>
<circle fill="#FFFFFF" stroke="#000000" stroke-width="0.2" cx="490.837" cy="748.696" r="2.706"/>
<circle fill="#FFFFFF" stroke="#2E3293" stroke-width="0.7" cx="499.224" cy="742.744" r="2.705"/>
<circle fill="#FFFFFF" stroke="#000000" stroke-width="0.2" cx="470.813" cy="749.237" r="2.706"/>
<circle fill="#FFFFFF" stroke="#000000" stroke-width="0.2" cx="495.164" cy="761.413" r="2.706"/>
<circle fill="#FFFFFF" stroke="#000000" stroke-width="0.2" cx="498.952" cy="781.708" r="2.706"/>
<circle fill="#FFFFFF" stroke="#000000" stroke-width="0.2" cx="478.93" cy="777.377" r="2.706"/>
<circle fill="#FFFFFF" stroke="#000000" stroke-width="0.2" cx="511.131" cy="802" r="2.706"/>
<circle fill="#FFFFFF" stroke="#000000" stroke-width="0.2" cx="431.578" cy="789.825" r="2.706"/>
<circle fill="#FFFFFF" stroke="#000000" stroke-width="0.2" cx="447.813" cy="765.471" r="2.706"/>
<circle fill="#FFFFFF" stroke="#000000" stroke-width="0.2" cx="419.943" cy="768.989" r="2.706"/>
<circle fill="#FFFFFF" stroke="#000000" stroke-width="0.2" cx="374.216" cy="761.413" r="2.706"/>
<circle fill="#FFFFFF" stroke="#000000" stroke-width="0.2" cx="447.003" cy="689.168" r="2.706"/>
<circle stroke="#000000" stroke-width="0.2" cx="181.02" cy="634.24" r="2.706"/>
<circle stroke="#000000" stroke-width="0.2" cx="152.609" cy="654.803" r="2.706"/>
<circle stroke="#2E3293" stroke-width="0.7" cx="105.256" cy="727.319" r="2.706"/>
<circle stroke="#000000" stroke-width="0.2" cx="221.877" cy="642.086" r="2.706"/>
<circle stroke="#000000" stroke-width="0.2" cx="145.844" cy="572.006" r="2.706"/>
<circle stroke="#000000" stroke-width="0.2" cx="255.971" cy="744.907" r="2.706"/>
<circle stroke="#000000" stroke-width="0.2" cx="527.635" cy="622.063" r="2.706"/>
<circle stroke="#000000" stroke-width="0.2" cx="539.811" cy="597.17" r="2.706"/>
<circle stroke="#000000" stroke-width="0.2" cx="482.164" cy="586.166" r="2.706"/>
<circle stroke="#2E3293" stroke-width="0.7" cx="490.296" cy="649.934" r="2.706"/>
<circle stroke="#000000" stroke-width="0.2" cx="559.022" cy="749.508" r="2.706"/>
<circle stroke="#000000" stroke-width="0.2" cx="531.694" cy="650.745" r="2.706"/>
<line fill="none" stroke="#000000" stroke-width="2" stroke-miterlimit="10" x1="355.807" y1="689.583" x2="233.64" y2="689.583"/>
<line fill="none" stroke="#000000" stroke-miterlimit="10" x1="449.015" y1="636.541" x2="457.015" y2="632.22"/>
<line fill="none" stroke="#000000" stroke-miterlimit="10" x1="465.015" y1="627.791" x2="473.015" y2="623.47"/>
<line fill="none" stroke="#000000" stroke-miterlimit="10" x1="92.981" y1="638.411" x2="100.124" y2="641.855"/>
<line fill="none" stroke="#000000" stroke-miterlimit="10" x1="108.562" y1="645.855" x2="116.139" y2="649.562"/>
<text transform="matrix(0.4586 0.8886 -0.8886 0.4586 480.0154 661.8589)" fill="#FF0000" font-family="'LatinModernMath-Regular'" font-size="12.9995">w · x - b = 0</text>
<g>
	<g>
		<defs>
			<rect id="SVGID_3_" x="25.353" y="554.935" width="267.876" height="267.877"/>
		</defs>
		<clipPath id="SVGID_4_">
			<use xlink:href="#SVGID_3_"  overflow="visible"/>
		</clipPath>
		<g clip-path="url(#SVGID_4_)">
			<path fill="none" d="M91.536,551.146c48.437,25.246,22.378,71.705,2.652,114.537c-20.781,45.025-10.934,101.414,50.22,73.869
				c53.846-24.271,89.646-26.246,114.188,78.74"/>
			
				<text transform="matrix(1 -0.0091 0.0091 1 111.5378 746.8647)" fill="#FF0000" font-family="'LatinModernMath-Regular'" font-size="13.0005">w</text>
			
				<text transform="matrix(1 -0.0091 0.0091 1 121.7834 746.4741)" fill="#FF0000" font-family="'LatinModernMath-Regular'" font-size="13.0005"> </text>
			
				<text transform="matrix(1 -0.0091 0.0091 1 126.4099 745.6743)" fill="#FF0000" font-family="'LatinModernMath-Regular'" font-size="13.0005">·</text>
			
				<text transform="matrix(1 -0.0091 0.0091 1 130.2366 744.7583)" fill="#FF0000" font-family="'LatinModernMath-Regular'" font-size="13.0005"> </text>
			
				<text transform="matrix(1 -0.0091 0.0091 1 134.7678 743.4194)" fill="#FF0000" font-family="'LatinModernMath-Regular'" font-size="13.0005">x</text>
			
				<text transform="matrix(1 -0.0091 0.0091 1 141.4021 740.8599)" fill="#FF0000" font-family="'LatinModernMath-Regular'" font-size="13.0005"> </text>
			
				<text transform="matrix(1 -0.0091 0.0091 1 145.408 739.0962)" fill="#FF0000" font-family="'LatinModernMath-Regular'" font-size="13.0005">-</text>
			
				<text transform="matrix(1 -0.0091 0.0091 1 149.3411 737.3618)" fill="#FF0000" font-family="'LatinModernMath-Regular'" font-size="13.0005"> </text>
			
				<text transform="matrix(1 -0.0091 0.0091 1 153.2688 735.6743)" fill="#FF0000" font-family="'LatinModernMath-Regular'" font-size="13.0005">b</text>
			
				<text transform="matrix(1 -0.0091 0.0091 1 159.9226 733.0474)" fill="#FF0000" font-family="'LatinModernMath-Regular'" font-size="13.0005"> </text>
			
				<text transform="matrix(1 -0.0091 0.0091 1 163.8621 731.5298)" fill="#FF0000" font-family="'LatinModernMath-Regular'" font-size="13.0005">=</text>
			
				<text transform="matrix(1 -0.0091 0.0091 1 173.3953 728.6323)" fill="#FF0000" font-family="'LatinModernMath-Regular'" font-size="13.0005"> </text>
			
				<text transform="matrix(1 -0.0091 0.0091 1 177.4573 727.5923)" fill="#FF0000" font-family="'LatinModernMath-Regular'" font-size="13.0005">0</text>
		</g>
	</g>
</g>
<path fill="none" d="M122.952,557.044c8.523,12.662,14.882,31.604,11.094,48.163c-5.547,24.218-15.908,47.568-25.568,68.511
	c-8.931,19.211-10.823,38.693-5.684,49.084c7.035,13.908,25.705,5.953,33.554,2.436c26.518-11.961,58.176-20.727,82.799-7.98
	c25.976,16.232,36.526,39.691,45.728,66.455"/>
<text transform="matrix(0.9158 -0.4017 0.4017 0.9158 134.3728 726.0874)" fill="#616162" font-family="'LatinModernMath-Regular'" font-size="13">w</text>
<text transform="matrix(0.9158 -0.4017 0.4017 0.9158 142.9128 722.3794)" fill="#616162" font-family="'LatinModernMath-Regular'" font-size="13"> </text>
<text transform="matrix(0.9158 -0.4017 0.4017 0.9158 146.8894 720.7788)" fill="#616162" font-family="'LatinModernMath-Regular'" font-size="13">·</text>
<text transform="matrix(0.9158 -0.4017 0.4017 0.9158 150.2273 719.5015)" fill="#616162" font-family="'LatinModernMath-Regular'" font-size="13"> </text>
<text transform="matrix(0.9158 -0.4017 0.4017 0.9158 154.2 718.0562)" fill="#616162" font-family="'LatinModernMath-Regular'" font-size="13">x</text>
<text transform="matrix(0.9158 -0.4017 0.4017 0.9158 160.6843 715.9878)" fill="#616162" font-family="'LatinModernMath-Regular'" font-size="13"> </text>
<text transform="matrix(0.9158 -0.4017 0.4017 0.9158 164.7673 714.8296)" fill="#616162" font-family="'LatinModernMath-Regular'" font-size="13">-</text>
<text transform="matrix(0.9158 -0.4017 0.4017 0.9158 168.8738 713.7964)" fill="#616162" font-family="'LatinModernMath-Regular'" font-size="13"> </text>
<text transform="matrix(0.9158 -0.4017 0.4017 0.9158 173.0046 712.8647)" fill="#616162" font-family="'LatinModernMath-Regular'" font-size="13">b</text>
<text transform="matrix(0.9158 -0.4017 0.4017 0.9158 180.0164 711.7417)" fill="#616162" font-family="'LatinModernMath-Regular'" font-size="13"> </text>
<text transform="matrix(0.9158 -0.4017 0.4017 0.9158 184.1062 711.1694)" fill="#616162" font-family="'LatinModernMath-Regular'" font-size="13">=</text>
<text transform="matrix(0.9158 -0.4017 0.4017 0.9158 194.03 711.0073)" fill="#616162" font-family="'LatinModernMath-Regular'" font-size="13"> </text>
<text transform="matrix(0.9158 -0.4017 0.4017 0.9158 198.1736 711.2202)" fill="#616162" font-family="'LatinModernMath-Regular'" font-size="13">1</text>
<path fill="none" d="M59.772,556.909c8.117,3.247,16.774,6.494,22.999,9.741c11.093,5.953,21.104,17.318,18.397,33.822
	c-7.817,47.434-51.272,84.34-28.273,137.537c13.637,31.469,47.514,30.09,77.276,17.588c15.344-6.494,35.8-17.1,53.767-8.928
	c11.824,5.383,24.676,21.807,36.526,72.566"/>
<text transform="matrix(0.8521 0.5233 -0.5233 0.8521 85.1907 755.1245)" fill="#616162" font-family="'LatinModernMath-Regular'" font-size="12.9995">w</text>
<text transform="matrix(0.8521 0.5233 -0.5233 0.8521 94.3601 760.3003)" fill="#616162" font-family="'LatinModernMath-Regular'" font-size="12.9995"> </text>
<text transform="matrix(0.8521 0.5233 -0.5233 0.8521 98.9753 761.9194)" fill="#616162" font-family="'LatinModernMath-Regular'" font-size="12.9995">·</text>
<text transform="matrix(0.8521 0.5233 -0.5233 0.8521 102.9875 762.9116)" fill="#616162" font-family="'LatinModernMath-Regular'" font-size="12.9995"> </text>
<text transform="matrix(0.8521 0.5233 -0.5233 0.8521 107.8826 763.687)" fill="#616162" font-family="'LatinModernMath-Regular'" font-size="12.9995">x</text>
<text transform="matrix(0.8521 0.5233 -0.5233 0.8521 115.2917 763.8862)" fill="#616162" font-family="'LatinModernMath-Regular'" font-size="12.9995"> </text>
<text transform="matrix(0.8521 0.5233 -0.5233 0.8521 119.9202 763.6177)" fill="#616162" font-family="'LatinModernMath-Regular'" font-size="12.9995">-</text>
<text transform="matrix(0.8521 0.5233 -0.5233 0.8521 124.5334 763.064)" fill="#616162" font-family="'LatinModernMath-Regular'" font-size="12.9995"> </text>
<text transform="matrix(0.8521 0.5233 -0.5233 0.8521 129.1521 762.2896)" fill="#616162" font-family="'LatinModernMath-Regular'" font-size="12.9995">b</text>
<text transform="matrix(0.8521 0.5233 -0.5233 0.8521 136.488 760.4487)" fill="#616162" font-family="'LatinModernMath-Regular'" font-size="12.9995"> </text>
<text transform="matrix(0.8521 0.5233 -0.5233 0.8521 140.9636 759.1636)" fill="#616162" font-family="'LatinModernMath-Regular'" font-size="12.9995">=</text>
<text transform="matrix(0.8521 0.5233 -0.5233 0.8521 150.6052 755.4194)" fill="#616162" font-family="'LatinModernMath-Regular'" font-size="12.9995">-</text>
<text transform="matrix(0.8521 0.5233 -0.5233 0.8521 154.5554 753.7056)" fill="#616162" font-family="'LatinModernMath-Regular'" font-size="12.9995"> </text>
<text transform="matrix(0.8521 0.5233 -0.5233 0.8521 158.4719 751.9897)" fill="#616162" font-family="'LatinModernMath-Regular'" font-size="12.9995">1</text>
<g>
	
		<text transform="matrix(0.4586 0.8886 -0.8886 0.4586 501.0154 666.3589)" fill="#616162" font-family="'LatinModernMath-Regular'" font-size="12.9995">w · x - b = 1</text>
</g>
<g>
	
		<text transform="matrix(0.4586 0.8886 -0.8886 0.4586 458.3484 658.5249)" fill="#616162" font-family="'LatinModernMath-Regular'" font-size="12.9995">w · x - b = -1</text>
</g>
<g>
	<g>
		
			<line fill="none" stroke="#231F20" stroke-width="1.5" stroke-miterlimit="10" x1="533.679" y1="770.916" x2="543.38" y2="765.802"/>
		<g>
			<polygon fill="#231F20" points="544.154,769.621 548.139,763.292 540.667,763.005 			"/>
		</g>
	</g>
</g>
<text transform="matrix(0.5424 0.8401 -0.8401 0.5424 230.6926 746.939)" font-family="'LatinModernMath-Regular'" font-size="16.0011">w</text>
<text transform="matrix(0.46 0.8879 -0.8879 0.46 536.6833 773.4556)" font-family="'LatinModernMath-Regular'" font-size="16">w</text>
<g>
	
		<text transform="matrix(0.9199 0.3921 -0.3921 0.9199 129.7415 653.1802)" font-family="'LatinModernMath-Regular'" font-size="14">b</text>
	
		<text transform="matrix(0.9199 0.3921 -0.3921 0.9199 116.0901 663.5317)" font-family="'LatinModernMath-Regular'" font-size="14">||w||</text>
	
		<line fill="none" stroke="#000000" stroke-width="0.5079" stroke-linecap="round" stroke-miterlimit="10" x1="121.517" y1="652.394" x2="143.825" y2="661.902"/>
</g>
<g>
	<text transform="matrix(0.882 -0.4713 0.4713 0.882 484.3269 615.5474)" font-family="'LatinModernMath-Regular'" font-size="14">b</text>
	<text transform="matrix(0.882 -0.4713 0.4713 0.882 483.8416 632.6724)" font-family="'LatinModernMath-Regular'" font-size="14">||w||</text>
	
		<line fill="none" stroke="#000000" stroke-width="0.5079" stroke-linecap="round" stroke-miterlimit="10" x1="478.56" y1="621.464" x2="499.948" y2="610.036"/>
</g>
</svg>
